%FSDAX24Y24*%
%MOIN*%
%SFA1B1*%

%IPPOS*%
%LNuda-1*%
%LPD*%
G36*
X013646Y009112D02*
X013653Y009110D01*
X013659Y009109*
X013664Y009107*
X013668Y009104*
X013671Y009103*
X013673Y009102*
X013674Y009101*
X013677Y009098*
X013681Y009096*
X013683Y009092*
X013686Y009089*
X013692Y009081*
X013698Y009074*
X013702Y009067*
X013704Y009064*
X013706Y009061*
X013707Y009058*
X013708Y009057*
X013709Y009055*
Y009105*
X013759*
Y008780*
X013704*
Y008950*
X013703Y008963*
X013702Y008975*
X013701Y008980*
Y008985*
X013700Y008990*
X013699Y008995*
X013698Y008999*
X013697Y009003*
X013696Y009006*
Y009009*
X013695Y009011*
Y009013*
X013694Y009014*
X013692Y009021*
X013689Y009027*
X013685Y009032*
X013682Y009036*
X013679Y009040*
X013676Y009042*
X013675Y009043*
X013674Y009044*
X013669Y009048*
X013663Y009051*
X013658Y009052*
X013653Y009054*
X013648*
X013645Y009055*
X013642*
X013635Y009054*
X013627Y009053*
X013620Y009052*
X013614Y009049*
X013609Y009047*
X013607Y009046*
X013605Y009045*
X013604Y009044*
X013603*
X013602Y009043*
X013582Y009094*
X013588Y009098*
X013593Y009100*
X013598Y009103*
X013603Y009105*
X013613Y009108*
X013617Y009109*
X013622Y009110*
X013625*
X013629Y009111*
X013632*
X013634Y009112*
X013636*
X013639*
X013646*
G37*
G36*
X012342Y009170D02*
X012123D01*
X012131Y009161*
X012138Y009151*
X012153Y009131*
X012160Y009121*
X012167Y009111*
X012173Y009102*
X012178Y009093*
X012183Y009085*
X012188Y009077*
X012192Y009070*
X012196Y009064*
X012198Y009059*
X012200Y009057*
X012201Y009055*
Y009054*
X012202Y009053*
Y009052*
X012209Y009039*
X012215Y009026*
X012221Y009013*
X012227Y009000*
X012232Y008988*
X012236Y008976*
X012241Y008965*
X012245Y008954*
X012248Y008944*
X012251Y008935*
X012253Y008927*
X012255Y008921*
X012256Y008918*
X012257Y008915*
X012258Y008913*
Y008911*
X012259Y008910*
Y008909*
Y008908*
X012263Y008894*
X012266Y008881*
X012268Y008868*
X012271Y008856*
X012273Y008845*
X012274Y008834*
X012276Y008825*
X012277Y008816*
X012278Y008808*
Y008801*
X012279Y008795*
Y008789*
Y008786*
X012280Y008782*
Y008781*
Y008780*
X012223*
X012222Y008792*
X012221Y008805*
X012219Y008816*
X012218Y008827*
X012216Y008838*
X012214Y008848*
X012213Y008858*
X012211Y008867*
X012209Y008875*
X012207Y008882*
X012206Y008888*
X012204Y008893*
X012203Y008898*
X012202Y008901*
Y008902*
Y008903*
X012197Y008918*
X012192Y008933*
X012188Y008947*
X012182Y008961*
X012177Y008975*
X012171Y008987*
X012166Y009000*
X012161Y009011*
X012156Y009021*
X012152Y009030*
X012147Y009039*
X012146Y009042*
X012144Y009046*
X012143Y009049*
X012141Y009051*
X012140Y009053*
X012139Y009055*
X012138Y009057*
X012137Y009058*
Y009059*
X012129Y009073*
X012121Y009086*
X012114Y009098*
X012106Y009110*
X012099Y009120*
X012092Y009130*
X012085Y009139*
X012079Y009147*
X012073Y009155*
X012068Y009161*
X012063Y009167*
X012060Y009171*
X012056Y009175*
X012054Y009178*
X012052Y009179*
Y009180*
Y009223*
X012342*
Y009170*
G37*
G36*
X011479Y009111D02*
X011490Y009110D01*
X011501Y009108*
X011512Y009105*
X011522Y009102*
X011530Y009098*
X011539Y009094*
X011546Y009089*
X011553Y009085*
X011559Y009081*
X011564Y009077*
X011568Y009074*
X011572Y009071*
X011574Y009069*
X011575Y009067*
X011576*
X011583Y009058*
X011590Y009048*
X011595Y009038*
X011600Y009028*
X011604Y009017*
X011608Y009006*
X011611Y008996*
X011613Y008986*
X011614Y008977*
X011616Y008968*
X011617Y008960*
Y008953*
X011618Y008950*
Y008948*
Y008945*
Y008943*
Y008942*
Y008941*
Y008940*
Y008925*
X011616Y008912*
X011614Y008899*
X011611Y008887*
X011608Y008876*
X011605Y008866*
X011601Y008857*
X011597Y008848*
X011593Y008841*
X011589Y008835*
X011586Y008829*
X011583Y008825*
X011580Y008821*
X011578Y008819*
X011577Y008817*
X011576*
X011568Y008809*
X011560Y008802*
X011551Y008796*
X011541Y008791*
X011532Y008787*
X011522Y008784*
X011513Y008781*
X011504Y008778*
X011496Y008776*
X011488Y008775*
X011481Y008774*
X011475*
X011470Y008773*
X011468*
X011467*
X011463*
X011453*
X011443Y008774*
X011434Y008775*
X011425Y008777*
X011417Y008779*
X011409Y008782*
X011402Y008784*
X011396Y008787*
X011390Y008789*
X011385Y008792*
X011380Y008794*
X011377Y008796*
X011374Y008798*
X011372Y008799*
X011371Y008800*
X011370*
X011364Y008806*
X011358Y008812*
X011352Y008818*
X011347Y008824*
X011343Y008831*
X011339Y008837*
X011335Y008844*
X011332Y008849*
X011329Y008855*
X011327Y008861*
X011325Y008866*
X011323Y008870*
X011322Y008873*
X011321Y008876*
Y008877*
Y008878*
X011377Y008885*
X011380Y008879*
X011382Y008873*
X011385Y008867*
X011388Y008862*
X011391Y008858*
X011393Y008854*
X011396Y008850*
X011399Y008846*
X011402Y008844*
X011404Y008841*
X011406Y008839*
X011408Y008837*
X011409Y008836*
X011410Y008835*
X011411Y008834*
X011415Y008831*
X011420Y008829*
X011424Y008827*
X011428Y008825*
X011437Y008822*
X011445Y008820*
X011449*
X011452Y008819*
X011455*
X011458*
X011460Y008818*
X011463*
X011471Y008819*
X011478Y008820*
X011484Y008821*
X011491Y008823*
X011497Y008825*
X011503Y008827*
X011508Y008830*
X011512Y008832*
X011517Y008835*
X011520Y008838*
X011524Y008840*
X011526Y008842*
X011528Y008844*
X011530Y008845*
X011531Y008846*
X011536Y008852*
X011540Y008858*
X011544Y008865*
X011547Y008871*
X011550Y008878*
X011553Y008885*
X011555Y008891*
X011556Y008898*
X011558Y008904*
X011559Y008910*
X011560Y008915*
Y008920*
X011561Y008923*
Y008926*
Y008928*
X011319*
Y008932*
Y008935*
Y008937*
Y008939*
Y008941*
Y008942*
Y008943*
Y008958*
X011320Y008971*
X011322Y008984*
X011325Y008996*
X011328Y009007*
X011332Y009018*
X011335Y009027*
X011339Y009036*
X011343Y009043*
X011347Y009050*
X011350Y009055*
X011354Y009060*
X011356Y009063*
X011358Y009066*
X011360Y009067*
Y009068*
X011368Y009075*
X011377Y009082*
X011385Y009088*
X011394Y009093*
X011403Y009098*
X011412Y009101*
X011420Y009104*
X011429Y009107*
X011437Y009109*
X011444Y009110*
X011450Y009111*
X011456*
X011460Y009112*
X011463*
X011466*
X011479Y009111*
G37*
G36*
X016500Y008780D02*
X016338D01*
X016324*
X016317Y008781*
X016310*
X016304Y008782*
X016298*
X016292Y008783*
X016287Y008784*
X016283Y008785*
X016278*
X016275Y008786*
X016272*
X016270Y008787*
X016268*
X016267*
X016266*
X016255Y008791*
X016245Y008794*
X016240Y008796*
X016236Y008798*
X016232Y008800*
X016228Y008802*
X016225Y008803*
X016222Y008805*
X016219Y008806*
X016217Y008808*
X016215Y008809*
X016214*
X016213Y008810*
X016205Y008816*
X016197Y008822*
X016190Y008829*
X016184Y008836*
X016179Y008842*
X016177Y008844*
X016175Y008846*
X016174Y008848*
X016173Y008850*
X016172*
Y008851*
X016165Y008861*
X016159Y008872*
X016154Y008883*
X016150Y008893*
X016148Y008898*
X016146Y008902*
X016145Y008906*
X016144Y008909*
X016143Y008912*
X016142Y008914*
X016141Y008915*
Y008916*
X016137Y008931*
X016135Y008947*
X016132Y008962*
Y008969*
X016131Y008976*
X016130Y008982*
Y008988*
Y008994*
Y008998*
X016129Y009002*
Y009004*
Y009006*
X016130Y009017*
Y009028*
X016131Y009039*
X016132Y009048*
X016134Y009058*
X016135Y009066*
X016136Y009075*
X016138Y009082*
X016140Y009089*
X016142Y009095*
X016143Y009100*
X016144Y009105*
X016146Y009109*
X016147Y009111*
Y009112*
Y009113*
X016151Y009122*
X016155Y009130*
X016158Y009137*
X016163Y009145*
X016167Y009152*
X016172Y009158*
X016176Y009164*
X016180Y009169*
X016184Y009174*
X016188Y009178*
X016192Y009181*
X016194Y009184*
X016197Y009187*
X016199Y009189*
X016200Y009190*
X016205Y009194*
X016211Y009198*
X016222Y009204*
X016233Y009210*
X016243Y009214*
X016248Y009216*
X016252Y009218*
X016256Y009219*
X016259Y009220*
X016262Y009221*
X016264Y009222*
X016265*
X016266*
X016271Y009223*
X016277Y009224*
X016283Y009225*
X016290Y009226*
X016303Y009227*
X016316Y009228*
X016322*
X016328*
X016333*
X016337*
X016500*
Y008780*
G37*
G36*
X011696Y009112D02*
X011703Y009110D01*
X011709Y009109*
X011714Y009107*
X011718Y009104*
X011722Y009103*
X011723Y009102*
X011724Y009101*
X011725*
X011727Y009098*
X011731Y009096*
X011734Y009092*
X011737Y009089*
X011742Y009081*
X011748Y009074*
X011752Y009067*
X011754Y009064*
X011756Y009061*
X011757Y009058*
X011758Y009057*
X011759Y009055*
Y009105*
X011809*
Y008780*
X011754*
Y008950*
X011753Y008963*
X011752Y008975*
X011751Y008980*
Y008985*
X011750Y008990*
X011749Y008995*
X011748Y008999*
Y009003*
X011747Y009006*
X011746Y009009*
Y009011*
X011745Y009013*
Y009014*
X011742Y009021*
X011739Y009027*
X011736Y009032*
X011732Y009036*
X011729Y009040*
X011727Y009042*
X011725Y009043*
X011724Y009044*
X011719Y009048*
X011713Y009051*
X011708Y009052*
X011703Y009054*
X011699*
X011695Y009055*
X011692*
X011685Y009054*
X011677Y009053*
X011670Y009052*
X011665Y009049*
X011659Y009047*
X011657Y009046*
X011656Y009045*
X011654Y009044*
X011653*
X011652Y009043*
X011633Y009094*
X011638Y009098*
X011643Y009100*
X011648Y009103*
X011654Y009105*
X011663Y009108*
X011668Y009109*
X011672Y009110*
X011676*
X011679Y009111*
X011682*
X011684Y009112*
X011686*
X011689*
X011696*
G37*
G36*
X012906Y009230D02*
X012914Y009229D01*
X012922Y009228*
X012930Y009226*
X012937Y009224*
X012944Y009222*
X012950Y009219*
X012955Y009217*
X012961Y009214*
X012965Y009212*
X012969Y009210*
X012972Y009208*
X012975Y009206*
X012976Y009205*
X012977Y009204*
X012978*
X012984Y009199*
X012989Y009193*
X012994Y009187*
X012999Y009181*
X013003Y009175*
X013007Y009168*
X013011Y009162*
X013014Y009156*
X013017Y009151*
X013020Y009146*
X013022Y009141*
X013023Y009137*
X013025Y009133*
X013026Y009131*
Y009130*
Y009129*
X013029Y009120*
X013032Y009110*
X013034Y009099*
X013036Y009088*
X013039Y009067*
X013040Y009057*
X013041Y009047*
Y009037*
X013042Y009029*
Y009021*
Y009014*
Y009011*
X013043Y009009*
Y009006*
Y009005*
Y009003*
Y009002*
Y009001*
Y008989*
X013042Y008978*
Y008967*
X013041Y008957*
X013040Y008947*
X013038Y008937*
X013037Y008928*
X013036Y008919*
X013034Y008911*
X013032Y008903*
X013031Y008895*
X013029Y008888*
X013027Y008881*
X013025Y008874*
X013023Y008868*
X013021Y008862*
X013019Y008857*
X013016Y008852*
X013014Y008847*
X013012Y008843*
X013011Y008839*
X013009Y008835*
X013007Y008832*
X013005Y008829*
X013004Y008827*
X013003Y008825*
X013001Y008823*
X013000Y008821*
Y008820*
X012999Y008819*
X012991Y008810*
X012984Y008803*
X012976Y008797*
X012967Y008792*
X012958Y008787*
X012950Y008784*
X012942Y008781*
X012934Y008778*
X012926Y008776*
X012919Y008775*
X012913Y008774*
X012907Y008773*
X012903*
X012899*
X012896*
X012887*
X012879Y008774*
X012871Y008775*
X012863Y008777*
X012856Y008779*
X012849Y008781*
X012843Y008783*
X012838Y008786*
X012833Y008788*
X012828Y008790*
X012825Y008793*
X012821Y008795*
X012819Y008797*
X012817Y008798*
X012816*
X012815Y008799*
X012810Y008804*
X012804Y008809*
X012799Y008815*
X012794Y008821*
X012790Y008828*
X012786Y008834*
X012782Y008840*
X012779Y008846*
X012776Y008852*
X012774Y008857*
X012772Y008862*
X012770Y008866*
X012768Y008869*
Y008871*
X012767Y008873*
Y008874*
X012764Y008883*
X012761Y008893*
X012759Y008903*
X012757Y008914*
X012754Y008935*
X012753Y008946*
X012752Y008956*
Y008965*
X012751Y008973*
Y008981*
Y008988*
Y008991*
X012750Y008994*
Y008996*
Y008997*
Y008999*
Y009000*
Y009001*
Y009013*
X012751Y009025*
Y009036*
X012752Y009046*
X012753Y009055*
X012754Y009064*
X012755Y009072*
X012756Y009079*
X012757Y009086*
Y009091*
X012758Y009096*
X012759Y009100*
X012760Y009103*
Y009105*
X012761Y009107*
X012763Y009114*
X012765Y009121*
X012767Y009128*
X012769Y009134*
X012772Y009140*
X012774Y009145*
X012776Y009150*
X012779Y009155*
X012780Y009159*
X012782Y009163*
X012784Y009166*
X012786Y009168*
X012787Y009170*
X012788Y009172*
Y009173*
X012789*
X012795Y009183*
X012803Y009191*
X012810Y009199*
X012817Y009205*
X012821Y009207*
X012824Y009209*
X012826Y009211*
X012829Y009213*
X012831Y009214*
X012832Y009215*
X012833*
X012838Y009218*
X012844Y009220*
X012855Y009224*
X012865Y009226*
X012875Y009228*
X012880Y009229*
X012884*
X012887Y009230*
X012890*
X012893*
X012896*
X012906*
G37*
G36*
X016640Y009363D02*
X012002D01*
Y010226*
X016640*
Y009363*
G37*
G36*
X010400Y008780D02*
X010338D01*
Y008843*
X010400*
Y008780*
G37*
G36*
X015902Y009236D02*
X015910D01*
X015917Y009235*
X015925Y009234*
X015932Y009233*
X015939Y009231*
X015945Y009230*
X015951Y009228*
X015957Y009227*
X015962Y009226*
X015965Y009224*
X015969Y009223*
X015972Y009222*
X015974Y009221*
X015975*
X015982Y009218*
X015988Y009214*
X015994Y009211*
X016000Y009207*
X016005Y009203*
X016009Y009200*
X016014Y009196*
X016017Y009192*
X016020Y009189*
X016023Y009186*
X016026Y009183*
X016028Y009181*
X016030Y009179*
X016031Y009177*
Y009176*
X016032*
X016035Y009170*
X016038Y009165*
X016040Y009159*
X016043Y009154*
X016044Y009148*
X016046Y009143*
X016047Y009138*
X016048Y009133*
X016049Y009129*
X016050Y009125*
Y009121*
Y009118*
X016051Y009116*
Y009114*
Y009113*
Y009112*
X016050Y009107*
Y009101*
X016048Y009091*
X016046Y009081*
X016044Y009077*
X016043Y009073*
X016041Y009069*
X016040Y009066*
X016039Y009064*
X016037Y009061*
X016036Y009059*
Y009058*
X016035Y009057*
X016032Y009052*
X016029Y009048*
X016021Y009040*
X016013Y009032*
X016005Y009027*
X016001Y009024*
X015998Y009022*
X015995Y009019*
X015992Y009018*
X015990Y009017*
X015988Y009016*
X015987Y009015*
X015982Y009012*
X015976Y009010*
X015970Y009007*
X015963Y009005*
X015949Y009000*
X015935Y008996*
X015928Y008994*
X015922Y008992*
X015916Y008991*
X015911Y008989*
X015907Y008988*
X015904Y008987*
X015903*
X015902*
X015901*
X015890Y008984*
X015880Y008982*
X015870Y008979*
X015862Y008977*
X015855Y008975*
X015848Y008973*
X015843Y008972*
X015838Y008970*
X015834Y008969*
X015830Y008968*
X015827Y008967*
X015825Y008966*
X015823*
X015822Y008965*
X015821*
X015816Y008963*
X015812Y008961*
X015807Y008959*
X015803Y008956*
X015799Y008954*
X015796Y008952*
X015793Y008949*
X015790Y008948*
X015788Y008946*
X015786Y008944*
X015783Y008941*
X015781Y008939*
Y008938*
X015777Y008932*
X015773Y008926*
X015771Y008920*
X015770Y008914*
X015769Y008909*
X015768Y008907*
Y008905*
Y008903*
Y008902*
X015769Y008894*
X015770Y008887*
X015772Y008880*
X015775Y008875*
X015777Y008870*
X015778Y008868*
X015779Y008866*
X015780Y008865*
Y008864*
X015781Y008863*
X015786Y008857*
X015792Y008851*
X015799Y008846*
X015805Y008843*
X015811Y008840*
X015813Y008838*
X015815Y008837*
X015817Y008836*
X015818*
X015819Y008835*
X015820*
X015830Y008832*
X015840Y008830*
X015850Y008828*
X015859Y008827*
X015863Y008826*
X015867*
X015870*
X015873*
X015876Y008825*
X015879*
X015893Y008826*
X015906Y008827*
X015912Y008829*
X015918Y008830*
X015923Y008831*
X015928Y008832*
X015932Y008833*
X015937Y008834*
X015940Y008836*
X015943Y008837*
X015945*
X015947Y008838*
X015948Y008839*
X015954Y008841*
X015959Y008844*
X015964Y008847*
X015968Y008850*
X015972Y008853*
X015976Y008855*
X015979Y008858*
X015982Y008861*
X015985Y008864*
X015987Y008866*
X015989Y008868*
X015990Y008870*
X015992Y008871*
X015993Y008872*
Y008873*
X015998Y008882*
X016002Y008891*
X016005Y008901*
X016008Y008909*
Y008913*
X016009Y008917*
X016010Y008921*
Y008924*
X016011Y008926*
Y008927*
Y008929*
X016067Y008924*
Y008916*
X016066Y008908*
X016065Y008900*
X016063Y008892*
X016061Y008886*
X016059Y008879*
X016057Y008873*
X016055Y008867*
X016053Y008862*
X016051Y008857*
X016049Y008853*
X016047Y008850*
X016045Y008847*
X016044Y008845*
X016043Y008844*
X016039Y008837*
X016034Y008831*
X016029Y008825*
X016023Y008820*
X016018Y008815*
X016012Y008811*
X016007Y008807*
X016002Y008803*
X015997Y008800*
X015993Y008798*
X015989Y008795*
X015985Y008793*
X015983Y008792*
X015981Y008791*
X015979Y008790*
X015971Y008787*
X015962Y008784*
X015954Y008782*
X015945Y008780*
X015928Y008777*
X015920Y008776*
X015912Y008775*
X015905Y008774*
X015898*
X015892Y008773*
X015887*
X015882*
X015877*
X015868*
X015859*
X015851Y008774*
X015843Y008775*
X015835Y008777*
X015828Y008778*
X015822Y008780*
X015815Y008781*
X015810Y008783*
X015805Y008785*
X015801Y008786*
X015797Y008787*
X015794Y008788*
X015792Y008789*
X015791Y008790*
X015790*
X015783Y008794*
X015777Y008797*
X015771Y008801*
X015765Y008805*
X015760Y008809*
X015755Y008813*
X015751Y008817*
X015747Y008821*
X015743Y008825*
X015740Y008828*
X015738Y008831*
X015736Y008834*
X015734Y008836*
X015733Y008838*
X015732Y008839*
X015728Y008845*
X015725Y008851*
X015722Y008857*
X015720Y008863*
X015718Y008869*
X015716Y008874*
X015715Y008880*
X015714Y008885*
X015713Y008890*
X015712Y008894*
Y008897*
X015711Y008901*
Y008903*
Y008905*
Y008906*
Y008907*
Y008913*
X015712Y008920*
X015713Y008926*
X015714Y008932*
X015715Y008937*
X015717Y008943*
X015719Y008948*
X015720Y008952*
X015722Y008956*
X015724Y008960*
X015726Y008963*
X015727Y008965*
X015728Y008967*
X015729Y008969*
X015730Y008970*
X015734Y008975*
X015738Y008980*
X015747Y008989*
X015756Y008997*
X015761Y009001*
X015766Y009004*
X015770Y009006*
X015775Y009009*
X015778Y009011*
X015781Y009013*
X015784Y009014*
X015786Y009015*
X015788Y009016*
X015793Y009018*
X015800Y009021*
X015807Y009023*
X015815Y009026*
X015823Y009028*
X015831Y009030*
X015847Y009035*
X015855Y009037*
X015863Y009039*
X015869Y009040*
X015875Y009042*
X015880Y009043*
X015882*
X015884Y009044*
X015885*
X015886*
X015887*
X015900Y009048*
X015912Y009051*
X015922Y009053*
X015931Y009056*
X015939Y009059*
X015947Y009062*
X015953Y009064*
X015959Y009067*
X015963Y009069*
X015967Y009071*
X015970Y009073*
X015972Y009074*
X015974Y009075*
X015975Y009076*
X015976*
Y009077*
X015979Y009080*
X015982Y009083*
X015984Y009086*
X015986Y009090*
X015989Y009096*
X015991Y009103*
X015992Y009108*
X015993Y009110*
Y009113*
Y009114*
Y009116*
Y009117*
Y009122*
X015992Y009127*
X015991Y009132*
X015989Y009136*
X015985Y009144*
X015983Y009148*
X015981Y009151*
X015979Y009154*
X015977Y009156*
X015974Y009159*
X015973Y009161*
X015971Y009162*
X015970Y009163*
X015969Y009164*
X015964Y009168*
X015959Y009171*
X015952Y009173*
X015946Y009176*
X015940Y009178*
X015933Y009179*
X015920Y009181*
X015915Y009182*
X015909Y009183*
X015904*
X015899Y009184*
X015896*
X015891*
X015881*
X015872Y009183*
X015864Y009182*
X015857Y009181*
X015850Y009179*
X015843Y009177*
X015837Y009175*
X015832Y009173*
X015828Y009171*
X015824Y009169*
X015821Y009168*
X015818Y009166*
X015815Y009164*
X015814Y009163*
X015813*
Y009162*
X015808Y009158*
X015804Y009153*
X015800Y009148*
X015797Y009143*
X015794Y009138*
X015791Y009133*
X015789Y009127*
X015788Y009122*
X015786Y009117*
X015785Y009113*
X015784Y009109*
X015783Y009105*
X015782Y009102*
Y009100*
Y009099*
Y009098*
X015725Y009102*
Y009110*
X015726Y009117*
X015727Y009123*
X015729Y009130*
X015731Y009136*
X015732Y009142*
X015734Y009147*
X015736Y009152*
X015739Y009157*
X015740Y009161*
X015742Y009164*
X015744Y009167*
X015745Y009169*
X015746Y009171*
X015747Y009172*
Y009173*
X015751Y009179*
X015755Y009184*
X015760Y009189*
X015765Y009193*
X015770Y009198*
X015775Y009202*
X015779Y009205*
X015784Y009208*
X015788Y009211*
X015792Y009213*
X015796Y009215*
X015799Y009217*
X015802Y009218*
X015804Y009219*
X015805Y009220*
X015812Y009223*
X015820Y009226*
X015827Y009227*
X015835Y009229*
X015850Y009232*
X015857Y009233*
X015863Y009234*
X015870Y009235*
X015875*
X015881Y009236*
X015885*
X015888*
X015893*
X015902*
G37*
G36*
X014623Y008780D02*
X014566D01*
Y009162*
X014436Y008780*
X014383*
X014252Y009155*
Y008780*
X014195*
Y009228*
X014275*
X014382Y008916*
X014385Y008908*
X014388Y008900*
X014390Y008892*
X014393Y008885*
X014395Y008878*
X014397Y008873*
X014399Y008867*
X014400Y008863*
X014402Y008858*
X014403Y008855*
X014404Y008852*
X014405Y008849*
Y008847*
X014406Y008846*
Y008845*
Y008844*
X014408Y008849*
X014409Y008854*
X014411Y008859*
X014412Y008864*
X014416Y008875*
X014420Y008886*
X014421Y008891*
X014423Y008896*
X014424Y008900*
X014425Y008904*
X014426Y008907*
X014427Y008909*
Y008910*
X014428Y008911*
X014534Y009228*
X014623*
Y008780*
G37*
G36*
X010088Y009225D02*
X010092Y009219D01*
X010099Y009208*
X010107Y009198*
X010111Y009193*
X010115Y009189*
X010119Y009185*
X010123Y009181*
X010126Y009178*
X010129Y009175*
X010131Y009173*
X010133Y009171*
X010134Y009170*
X010148Y009159*
X010162Y009149*
X010175Y009140*
X010182Y009136*
X010188Y009132*
X010193Y009129*
X010199Y009126*
X010203Y009123*
X010207Y009121*
X010211Y009120*
X010213Y009118*
X010214*
X010215Y009117*
Y009064*
X010205Y009068*
X010195Y009073*
X010186Y009077*
X010176Y009082*
X010173Y009084*
X010169Y009086*
X010165Y009088*
X010163Y009089*
X010161Y009090*
X010159Y009091*
X010158Y009092*
X010157*
X010146Y009099*
X010141Y009103*
X010135Y009106*
X010131Y009110*
X010127Y009113*
X010123Y009116*
X010119Y009119*
X010116Y009121*
X010113Y009123*
X010110Y009126*
X010108Y009127*
X010107Y009129*
X010106Y009130*
X010105*
Y009131*
Y008780*
X010050*
Y009230*
X010085*
X010088Y009225*
G37*
G36*
X015628Y008780D02*
X015568D01*
Y008991*
X015336*
Y008780*
X015277*
Y009228*
X015336*
Y009044*
X015568*
Y009228*
X015628*
Y008780*
G37*
G36*
X013984Y009111D02*
X013992D01*
X013998Y009110*
X014005*
X014011Y009109*
X014017Y009107*
X014022Y009106*
X014027Y009105*
X014031Y009104*
X014034Y009103*
X014038Y009102*
X014040Y009101*
X014042*
X014043Y009100*
X014049Y009098*
X014054Y009096*
X014059Y009093*
X014064Y009090*
X014068Y009088*
X014072Y009085*
X014076Y009082*
X014079Y009080*
X014082Y009077*
X014085Y009075*
X014087Y009073*
X014088Y009071*
X014090Y009070*
X014091Y009069*
Y009068*
X014092*
X014098Y009059*
X014102Y009050*
X014107Y009041*
X014110Y009032*
X014111Y009028*
X014112Y009024*
X014113Y009021*
X014114Y009018*
X014115Y009015*
Y009014*
X014116Y009012*
X014062Y009005*
X014060Y009011*
X014058Y009017*
X014056Y009022*
X014054Y009027*
X014052Y009031*
X014050Y009035*
X014047Y009038*
X014045Y009041*
X014043Y009044*
X014041Y009046*
X014039Y009048*
X014038Y009050*
X014036Y009051*
X014035Y009052*
X014031Y009055*
X014027Y009057*
X014018Y009061*
X014008Y009063*
X013999Y009065*
X013995*
X013991Y009066*
X013987*
X013984*
X013981*
X013977*
X013970*
X013963*
X013956Y009065*
X013950Y009064*
X013944Y009062*
X013939Y009061*
X013935Y009059*
X013930Y009057*
X013927Y009055*
X013924Y009053*
X013921Y009052*
X013919Y009051*
X013917Y009049*
X013916*
X013915Y009048*
X013912Y009045*
X013910Y009042*
X013907Y009038*
X013906Y009035*
X013903Y009027*
X013901Y009019*
X013900Y009012*
X013899Y009008*
Y009006*
Y009004*
Y009002*
Y009001*
Y009000*
Y008999*
Y008997*
Y008992*
Y008990*
Y008988*
Y008987*
Y008986*
X013906Y008984*
X013913Y008982*
X013920Y008980*
X013928Y008978*
X013944Y008975*
X013952Y008974*
X013960Y008972*
X013968Y008971*
X013975Y008970*
X013981Y008969*
X013986Y008968*
X013991*
X013995Y008967*
X013996*
X013997*
X014003Y008966*
X014009*
X014014Y008965*
X014019Y008964*
X014023Y008963*
X014027*
X014031Y008962*
X014034Y008961*
X014037*
X014040Y008960*
X014041*
X014043*
X014045Y008959*
X014046*
X014054Y008956*
X014062Y008953*
X014069Y008950*
X014075Y008948*
X014079Y008945*
X014081Y008944*
X014083Y008943*
X014084Y008942*
X014085Y008941*
X014086*
X014092Y008936*
X014098Y008931*
X014103Y008925*
X014107Y008920*
X014110Y008916*
X014112Y008912*
X014113Y008911*
X014114Y008910*
Y008909*
X014118Y008902*
X014121Y008894*
X014122Y008887*
X014124Y008880*
Y008874*
X014125Y008872*
Y008870*
Y008868*
Y008867*
Y008866*
Y008858*
X014124Y008851*
X014122Y008844*
X014121Y008838*
X014119Y008832*
X014116Y008827*
X014113Y008821*
X014111Y008817*
X014108Y008813*
X014106Y008809*
X014103Y008806*
X014101Y008804*
X014099Y008801*
X014098Y008800*
X014097Y008799*
X014091Y008794*
X014085Y008790*
X014078Y008787*
X014072Y008784*
X014065Y008781*
X014058Y008779*
X014051Y008777*
X014045Y008776*
X014039Y008775*
X014033Y008774*
X014028*
X014023Y008773*
X014019*
X014017*
X014014*
X014002*
X013991Y008774*
X013981Y008776*
X013976Y008777*
X013972Y008778*
X013968Y008779*
X013964Y008780*
X013961Y008781*
X013959Y008782*
X013957*
X013955Y008783*
X013954*
X013949Y008786*
X013943Y008788*
X013933Y008794*
X013923Y008800*
X013918Y008803*
X013914Y008806*
X013910Y008809*
X013906Y008811*
X013903Y008814*
X013900Y008816*
X013898Y008818*
X013896Y008819*
X013895Y008820*
X013893Y008812*
X013892Y008804*
X013890Y008798*
X013888Y008791*
X013886Y008787*
Y008785*
X013885Y008783*
X013884Y008782*
Y008781*
X013883Y008780*
X013826*
X013830Y008787*
X013833Y008794*
X013835Y008800*
X013837Y008806*
X013839Y008811*
Y008814*
X013840Y008815*
Y008817*
Y008818*
Y008819*
X013841Y008821*
Y008823*
Y008829*
X013842Y008835*
Y008843*
X013843Y008851*
Y008859*
Y008875*
Y008883*
Y008891*
X013844Y008898*
Y008904*
Y008909*
Y008911*
Y008913*
Y008914*
Y008915*
Y008916*
Y008989*
Y008996*
Y009002*
Y009007*
Y009013*
Y009017*
Y009021*
X013845Y009025*
Y009028*
Y009031*
Y009033*
X013846Y009036*
Y009037*
Y009038*
Y009039*
Y009040*
X013849Y009048*
X013851Y009055*
X013854Y009062*
X013857Y009067*
X013859Y009072*
X013862Y009075*
Y009076*
X013863Y009077*
X013864*
X013869Y009083*
X013875Y009087*
X013881Y009092*
X013887Y009095*
X013893Y009098*
X013895Y009099*
X013898Y009100*
X013899Y009101*
X013901Y009102*
X013902*
X013907Y009104*
X013912Y009105*
X013923Y009108*
X013935Y009110*
X013945Y009111*
X013950*
X013955*
X013959Y009112*
X013962*
X013969*
X013984Y009111*
G37*
G36*
X013254Y009230D02*
X013265Y009229D01*
X013275Y009227*
X013285Y009225*
X013294Y009222*
X013302Y009219*
X013310Y009216*
X013317Y009214*
X013323Y009210*
X013329Y009207*
X013333Y009204*
X013337Y009202*
X013340Y009200*
X013342Y009198*
X013344Y009197*
X013351Y009190*
X013357Y009183*
X013362Y009176*
X013367Y009168*
X013371Y009160*
X013374Y009152*
X013377Y009144*
X013380Y009136*
X013382Y009129*
X013383Y009122*
X013385Y009116*
X013386Y009111*
X013387Y009107*
Y009103*
Y009102*
Y009101*
Y009100*
X013331Y009095*
X013330Y009102*
Y009110*
X013328Y009116*
X013327Y009123*
X013325Y009129*
X013323Y009134*
X013321Y009139*
X013319Y009143*
X013317Y009147*
X013314Y009151*
X013312Y009154*
X013311Y009156*
X013309Y009158*
X013308Y009159*
X013307Y009160*
X013302Y009165*
X013297Y009168*
X013292Y009171*
X013287Y009174*
X013281Y009177*
X013276Y009179*
X013271Y009180*
X013266Y009181*
X013261Y009182*
X013257Y009183*
X013253Y009184*
X013250*
X013247*
X013243*
X013236*
X013230Y009183*
X013224Y009182*
X013218Y009181*
X013213Y009179*
X013208Y009177*
X013203Y009175*
X013199Y009173*
X013195Y009171*
X013192Y009169*
X013189Y009167*
X013187Y009165*
X013185Y009164*
X013184Y009163*
X013183Y009162*
X013178Y009157*
X013175Y009153*
X013172Y009148*
X013169Y009144*
X013167Y009139*
X013165Y009134*
X013163Y009130*
X013162Y009126*
X013161Y009122*
X013160Y009118*
Y009115*
X013159Y009112*
Y009110*
Y009108*
Y009107*
Y009101*
X013160Y009095*
X013161Y009089*
X013163Y009083*
X013167Y009072*
X013170Y009067*
X013172Y009062*
X013174Y009057*
X013177Y009053*
X013179Y009050*
X013181Y009046*
X013183Y009044*
X013184Y009042*
X013185Y009041*
Y009040*
X013190Y009034*
X013197Y009026*
X013203Y009019*
X013211Y009011*
X013219Y009003*
X013227Y008995*
X013235Y008987*
X013244Y008980*
X013252Y008973*
X013259Y008966*
X013266Y008960*
X013272Y008955*
X013277Y008951*
X013278Y008949*
X013280Y008948*
X013281Y008947*
X013282Y008946*
X013283*
Y008945*
X013292Y008938*
X013300Y008931*
X013307Y008925*
X013314Y008919*
X013321Y008913*
X013327Y008907*
X013332Y008902*
X013337Y008897*
X013341Y008893*
X013345Y008889*
X013348Y008886*
X013351Y008883*
X013353Y008880*
X013354Y008879*
X013355Y008878*
X013364Y008867*
X013371Y008856*
X013378Y008846*
X013381Y008841*
X013383Y008837*
X013385Y008833*
X013387Y008829*
X013388Y008826*
X013389Y008823*
X013390Y008821*
X013391Y008819*
X013392Y008818*
X013394Y008811*
X013395Y008804*
X013396Y008798*
X013397Y008792*
Y008787*
X013398Y008785*
Y008783*
Y008782*
Y008781*
Y008780*
X013102*
Y008833*
X013321*
X013318Y008838*
X013314Y008844*
X013310Y008849*
X013306Y008853*
X013303Y008857*
X013300Y008860*
X013299Y008862*
X013298*
X013295Y008866*
X013291Y008869*
X013287Y008873*
X013282Y008878*
X013277Y008882*
X013272Y008887*
X013261Y008896*
X013256Y008901*
X013251Y008905*
X013247Y008909*
X013242Y008912*
X013239Y008915*
X013237Y008917*
X013235Y008919*
X013224Y008928*
X013214Y008937*
X013205Y008945*
X013197Y008952*
X013189Y008960*
X013182Y008966*
X013175Y008972*
X013170Y008977*
X013165Y008982*
X013161Y008986*
X013158Y008990*
X013155Y008993*
X013152Y008995*
X013151Y008996*
X013150Y008997*
Y008998*
X013145Y009003*
X013141Y009008*
X013137Y009014*
X013133Y009018*
X013127Y009028*
X013124Y009032*
X013122Y009036*
X013120Y009040*
X013118Y009043*
X013116Y009046*
Y009048*
X013115Y009050*
X013114Y009051*
X013113Y009052*
X013110Y009062*
X013107Y009072*
X013105Y009081*
X013104Y009089*
X013103Y009092*
Y009096*
Y009098*
X013102Y009101*
Y009103*
Y009104*
Y009105*
X013103Y009115*
X013104Y009124*
X013106Y009133*
X013108Y009142*
X013111Y009149*
X013114Y009157*
X013118Y009164*
X013121Y009170*
X013125Y009175*
X013128Y009180*
X013131Y009184*
X013134Y009188*
X013137Y009191*
X013139Y009192*
X013140Y009194*
X013148Y009201*
X013155Y009206*
X013163Y009211*
X013172Y009215*
X013180Y009218*
X013189Y009221*
X013197Y009224*
X013205Y009226*
X013213Y009227*
X013220Y009228*
X013226Y009229*
X013231*
X013236Y009230*
X013239*
X013242*
X013254*
G37*
G36*
X012525Y009225D02*
X012529Y009219D01*
X012536Y009208*
X012544Y009198*
X012549Y009193*
X012552Y009189*
X012556Y009185*
X012560Y009181*
X012563Y009178*
X012566Y009175*
X012568Y009173*
X012570Y009171*
X012571Y009170*
X012572*
X012585Y009159*
X012599Y009149*
X012612Y009140*
X012619Y009136*
X012625Y009132*
X012630Y009129*
X012636Y009126*
X012641Y009123*
X012644Y009121*
X012648Y009120*
X012650Y009118*
X012652*
Y009117*
Y009064*
X012642Y009068*
X012632Y009073*
X012623Y009077*
X012614Y009082*
X012610Y009084*
X012606Y009086*
X012603Y009088*
X012600Y009089*
X012598Y009090*
X012596Y009091*
X012595Y009092*
X012594*
X012583Y009099*
X012578Y009103*
X012572Y009106*
X012568Y009110*
X012564Y009113*
X012560Y009116*
X012556Y009119*
X012553Y009121*
X012550Y009123*
X012548Y009126*
X012546Y009127*
X012544Y009129*
X012543Y009130*
X012542*
Y009131*
Y008780*
X012487*
Y009230*
X012523*
X012525Y009225*
G37*
G36*
X010611D02*
X010614Y009219D01*
X010621Y009208*
X010629Y009198*
X010634Y009193*
X010638Y009189*
X010641Y009185*
X010645Y009181*
X010648Y009178*
X010651Y009175*
X010653Y009173*
X010655Y009171*
X010656Y009170*
X010657*
X010670Y009159*
X010684Y009149*
X010697Y009140*
X010704Y009136*
X010710Y009132*
X010716Y009129*
X010721Y009126*
X010726Y009123*
X010730Y009121*
X010733Y009120*
X010735Y009118*
X010737*
Y009117*
Y009064*
X010728Y009068*
X010718Y009073*
X010708Y009077*
X010699Y009082*
X010695Y009084*
X010691Y009086*
X010688Y009088*
X010685Y009089*
X010683Y009090*
X010681Y009091*
X010680Y009092*
X010668Y009099*
X010663Y009103*
X010658Y009106*
X010653Y009110*
X010649Y009113*
X010645Y009116*
X010641Y009119*
X010638Y009121*
X010635Y009123*
X010633Y009126*
X010631Y009127*
X010629Y009129*
X010628Y009130*
X010627*
Y009131*
Y008780*
X010572*
Y009230*
X010608*
X010611Y009225*
G37*
G36*
X015033Y008914D02*
X014863D01*
Y008970*
X015033*
Y008914*
G37*
G36*
X011161Y008780D02*
X011110D01*
X010987Y009105*
X011044*
X011116Y008907*
X011120Y008894*
X011123Y008888*
X011125Y008882*
X011126Y008876*
X011128Y008871*
X011129Y008867*
X011131Y008862*
X011132Y008858*
X011133Y008855*
X011134Y008852*
X011135Y008849*
X011136Y008847*
Y008846*
Y008845*
X011140Y008857*
X011143Y008869*
X011147Y008880*
X011148Y008886*
X011150Y008890*
X011151Y008895*
X011153Y008899*
X011154Y008902*
X011155Y008905*
X011156Y008907*
Y008909*
X011157Y008910*
X011227Y009105*
X011285*
X011161Y008780*
G37*
%LNuda-2*%
%LPC*%
G36*
X014979Y010018D02*
X014816D01*
X014812*
X014807*
X014802*
X014795*
X014782Y010017*
X014769Y010016*
X014763Y010015*
X014756Y010014*
X014751Y010013*
X014745Y010012*
X014744*
X014742Y010011*
X014739Y010010*
X014735Y010009*
X014732Y010008*
X014727Y010006*
X014722Y010004*
X014712Y010000*
X014701Y009994*
X014690Y009988*
X014685Y009984*
X014680Y009980*
X014679*
X014678Y009979*
X014676Y009977*
X014674Y009974*
X014671Y009971*
X014667Y009968*
X014664Y009964*
X014660Y009959*
X014655Y009954*
X014651Y009948*
X014647Y009942*
X014642Y009935*
X014638Y009927*
X014634Y009920*
X014630Y009912*
X014627Y009903*
X014626Y009902*
Y009901*
X014625Y009899*
X014624Y009895*
X014622Y009890*
X014621Y009885*
X014619Y009879*
X014618Y009872*
X014616Y009865*
X014614Y009856*
X014613Y009848*
X014612Y009838*
X014610Y009829*
X014609Y009818*
Y009807*
Y009796*
Y009794*
Y009792*
Y009788*
Y009784*
Y009778*
X014610Y009772*
Y009766*
X014611Y009759*
X014612Y009752*
X014614Y009737*
X014617Y009721*
X014621Y009706*
Y009705*
Y009704*
X014622Y009702*
X014623Y009699*
X014624Y009696*
X014626Y009692*
X014627Y009688*
X014629Y009683*
X014633Y009673*
X014639Y009662*
X014645Y009651*
X014652Y009641*
Y009640*
X014653Y009638*
X014655Y009636*
X014656Y009634*
X014659Y009632*
X014664Y009626*
X014670Y009619*
X014676Y009612*
X014684Y009606*
X014692Y009600*
X014693*
Y009599*
X014695*
X014696Y009598*
X014698Y009596*
X014701Y009595*
X014704Y009593*
X014707Y009592*
X014711Y009590*
X014715Y009588*
X014720Y009586*
X014724Y009584*
X014734Y009581*
X014746Y009577*
X014747*
X014749*
X014751Y009576*
X014754*
X014758Y009575*
X014762*
X014767Y009574*
X014772Y009573*
X014777Y009572*
X014783*
X014790Y009571*
X014796*
X014803Y009570*
X014818*
X014979*
Y010018*
G37*
G36*
X013067D02*
X012978D01*
X012872Y009701*
Y009700*
X012871Y009699*
Y009697*
X012870Y009694*
X012869Y009690*
X012867Y009686*
X012866Y009681*
X012864Y009676*
X012860Y009665*
X012857Y009654*
X012855Y009649*
X012854Y009644*
X012852Y009639*
X012851Y009634*
Y009635*
X012850Y009636*
Y009637*
X012849Y009639*
X012848Y009642*
X012847Y009645*
X012846Y009648*
X012845Y009653*
X012843Y009657*
X012841Y009663*
X012839Y009668*
X012837Y009675*
X012835Y009682*
X012833Y009690*
X012830Y009698*
X012827Y009706*
X012719Y010018*
X012639*
Y009570*
X012696*
Y009945*
X012827Y009570*
X012881*
X013010Y009952*
Y009570*
X013067*
Y010018*
G37*
G36*
X014404D02*
X014340D01*
X014157Y009570*
X014224*
X014276Y009706*
X014464*
X014513Y009570*
X014576*
X014404Y010018*
G37*
G36*
X015573D02*
X015401D01*
X015397*
X015393*
X015388*
X015382Y010017*
X015376*
X015369Y010016*
X015363Y010015*
X015349Y010013*
X015335Y010009*
X015329Y010007*
X015323Y010004*
X015322*
X015320Y010003*
X015318Y010002*
X015315Y010001*
X015312Y009999*
X015309Y009997*
X015305Y009994*
X015301Y009992*
X015298Y009988*
X015294Y009985*
X015289Y009981*
X015286Y009977*
X015282Y009973*
X015278Y009968*
X015275Y009963*
X015274Y009962*
Y009961*
X015273Y009960*
X015272Y009958*
X015270Y009955*
X015269Y009952*
X015267Y009949*
X015266Y009945*
X015264Y009940*
X015262Y009936*
X015260Y009926*
X015257Y009915*
Y009909*
Y009903*
Y009902*
Y009900*
Y009899*
Y009896*
X015258Y009893*
Y009889*
X015259Y009886*
X015261Y009877*
X015264Y009868*
X015265Y009864*
X015267Y009859*
X015270Y009854*
X015273Y009849*
Y009848*
X015274Y009847*
X015276Y009845*
X015277Y009843*
X015279Y009841*
X015282Y009838*
X015284Y009835*
X015288Y009831*
X015291Y009828*
X015295Y009825*
X015299Y009821*
X015304Y009818*
X015309Y009815*
X015314Y009811*
X015320Y009808*
X015319*
X015318*
X015316Y009807*
X015313Y009806*
X015310Y009805*
X015306Y009803*
X015301Y009801*
X015297Y009799*
X015291Y009796*
X015286Y009793*
X015281Y009790*
X015276Y009786*
X015271Y009782*
X015266Y009778*
X015261Y009773*
X015257Y009768*
Y009767*
X015256Y009766*
X015255Y009765*
X015254Y009762*
X015252Y009760*
X015250Y009757*
X015248Y009753*
X015246Y009749*
X015244Y009744*
X015242Y009738*
X015240Y009733*
X015239Y009727*
X015237Y009721*
X015236Y009714*
X015235Y009707*
Y009700*
Y009699*
Y009697*
Y009694*
Y009692*
X015236Y009689*
Y009685*
X015237Y009681*
X015238Y009672*
X015241Y009662*
X015244Y009651*
X015249Y009641*
Y009640*
X015250Y009638*
X015251Y009636*
X015252Y009634*
X015254Y009632*
X015258Y009626*
X015263Y009619*
X015268Y009612*
X015274Y009605*
X015281Y009599*
X015282*
X015283Y009598*
X015285Y009597*
X015287Y009596*
X015289Y009595*
X015292Y009593*
X015295Y009591*
X015298Y009589*
X015302Y009588*
X015310Y009584*
X015320Y009581*
X015330Y009577*
X015331*
X015332*
X015333*
X015335Y009576*
X015338*
X015342Y009575*
X015346*
X015350Y009574*
X015355Y009573*
X015361Y009572*
X015367*
X015373Y009571*
X015380*
X015387Y009570*
X015395*
X015573*
Y010018*
G37*
G36*
X013915Y010026D02*
X013911D01*
X013909*
X013904*
X013898Y010025*
X013891Y010024*
X013884Y010023*
X013876Y010022*
X013867Y010020*
X013858Y010018*
X013848Y010015*
X013839Y010012*
X013830Y010008*
X013820Y010003*
X013811Y009998*
X013802Y009992*
X013801*
X013800Y009990*
X013797Y009988*
X013795Y009985*
X013791Y009982*
X013786Y009978*
X013782Y009973*
X013777Y009967*
X013772Y009960*
X013766Y009953*
X013761Y009945*
X013756Y009937*
X013750Y009927*
X013746Y009917*
X013741Y009907*
X013738Y009895*
X013796Y009882*
X013797Y009884*
X013798Y009886*
X013799Y009890*
X013801Y009894*
X013803Y009898*
X013805Y009903*
X013808Y009909*
X013811Y009915*
X013814Y009921*
X013818Y009926*
X013822Y009933*
X013827Y009938*
X013831Y009944*
X013836Y009948*
X013842Y009953*
X013843Y009954*
X013845Y009955*
X013847Y009957*
X013850Y009958*
X013854Y009960*
X013858Y009962*
X013862Y009964*
X013867Y009966*
X013873Y009968*
X013879Y009970*
X013886Y009972*
X013893Y009973*
X013900Y009974*
X013908Y009975*
X013916*
X013921*
X013925*
X013929*
X013935Y009974*
X013940Y009973*
X013946Y009972*
X013953Y009971*
X013960Y009969*
X013967Y009967*
X013975Y009965*
X013982Y009962*
X013989Y009958*
X013996Y009955*
X014003Y009950*
X014004Y009949*
X014006Y009948*
X014008Y009946*
X014011Y009943*
X014015Y009940*
X014018Y009937*
X014022Y009933*
X014026Y009928*
X014030Y009923*
X014034Y009918*
X014038Y009912*
X014042Y009906*
X014045Y009899*
X014049Y009892*
X014051Y009884*
X014052Y009882*
X014053Y009880*
X014054Y009877*
X014055Y009873*
X014056Y009868*
X014057Y009863*
X014058Y009857*
X014060Y009851*
X014061Y009844*
X014062Y009837*
X014063Y009830*
X014065Y009814*
Y009806*
Y009798*
Y009797*
Y009795*
Y009792*
Y009788*
Y009783*
X014064Y009777*
Y009771*
X014063Y009764*
X014062Y009756*
Y009748*
X014058Y009732*
X014057Y009723*
X014054Y009714*
X014052Y009706*
X014049Y009698*
X014048Y009696*
X014047Y009694*
X014046Y009691*
X014044Y009688*
X014042Y009683*
X014039Y009679*
X014036Y009674*
X014033Y009669*
X014029Y009664*
X014025Y009658*
X014020Y009653*
X014015Y009648*
X014009Y009643*
X014004Y009639*
X013997Y009634*
X013995Y009633*
X013993*
X013991Y009631*
X013988Y009630*
X013984Y009628*
X013979Y009626*
X013974Y009624*
X013969Y009622*
X013963Y009620*
X013957Y009618*
X013950Y009617*
X013943Y009615*
X013936Y009614*
X013928*
X013921Y009613*
X013919*
X013916Y009614*
X013912*
X013908*
X013903Y009615*
X013898Y009616*
X013892Y009617*
X013885Y009619*
X013878Y009621*
X013871Y009623*
X013864Y009625*
X013857Y009629*
X013850Y009633*
X013843Y009637*
X013836Y009642*
X013835Y009643*
X013833Y009645*
X013831Y009647*
X013828Y009650*
X013825Y009654*
X013821Y009658*
X013818Y009663*
X013814Y009669*
X013810Y009675*
X013806Y009682*
X013802Y009690*
X013798Y009698*
X013795Y009707*
X013792Y009717*
X013789Y009727*
X013730Y009712*
Y009711*
X013731Y009710*
Y009709*
Y009707*
X013732Y009705*
X013734Y009700*
X013736Y009694*
X013738Y009687*
X013742Y009680*
X013746Y009671*
X013750Y009662*
X013755Y009653*
X013760Y009644*
X013766Y009634*
X013773Y009625*
X013781Y009617*
X013789Y009609*
X013797Y009601*
X013798Y009600*
X013800Y009599*
X013802Y009597*
X013806Y009595*
X013811Y009592*
X013817Y009589*
X013823Y009585*
X013830Y009582*
X013839Y009578*
X013848Y009575*
X013857Y009571*
X013868Y009568*
X013879Y009566*
X013891Y009564*
X013903Y009563*
X013916*
X013921*
X013923*
X013928*
X013934Y009564*
X013941*
X013949Y009565*
X013958Y009566*
X013967Y009568*
X013977Y009570*
X013987Y009572*
X013996Y009575*
X014006Y009578*
X014016Y009582*
X014025Y009587*
X014034Y009592*
X014035*
X014036Y009593*
X014038Y009595*
X014041Y009598*
X014045Y009600*
X014050Y009604*
X014054Y009609*
X014060Y009614*
X014065Y009620*
X014071Y009626*
X014076Y009633*
X014082Y009640*
X014088Y009649*
X014093Y009657*
X014098Y009667*
X014103Y009677*
Y009678*
X014104Y009680*
X014105Y009683*
X014107Y009687*
X014109Y009692*
X014110Y009698*
X014113Y009705*
X014115Y009713*
X014117Y009722*
X014119Y009731*
X014121Y009741*
X014123Y009752*
X014124Y009762*
X014126Y009774*
Y009785*
X014127Y009797*
Y009798*
Y009799*
Y009801*
Y009802*
X014126Y009804*
Y009809*
Y009815*
X014125Y009822*
X014124Y009830*
X014123Y009839*
X014122Y009848*
X014120Y009858*
X014118Y009868*
X014115Y009879*
X014112Y009889*
X014109Y009900*
X014105Y009910*
X014100Y009920*
X014099Y009922*
X014097Y009924*
X014095Y009928*
X014092Y009933*
X014089Y009937*
X014085Y009943*
X014080Y009949*
X014075Y009955*
X014070Y009962*
X014063Y009969*
X014057Y009975*
X014049Y009981*
X014041Y009988*
X014033Y009993*
X014024Y009999*
X014023*
X014022Y010000*
X014019Y010002*
X014015Y010003*
X014011Y010005*
X014005Y010008*
X013999Y010010*
X013992Y010013*
X013984Y010015*
X013976Y010017*
X013967Y010020*
X013957Y010022*
X013947Y010024*
X013937Y010025*
X013926Y010026*
X013915*
G37*
G36*
X016440Y010018D02*
X016381D01*
Y009760*
Y009759*
Y009757*
Y009754*
X016380Y009750*
Y009745*
Y009740*
Y009734*
X016379Y009727*
Y009720*
X016378Y009713*
X016376Y009699*
X016375Y009692*
X016374Y009685*
X016372Y009679*
X016370Y009673*
X016369Y009672*
Y009671*
X016368Y009669*
X016367Y009667*
X016365Y009664*
X016361Y009658*
X016356Y009651*
X016353Y009647*
X016350Y009644*
X016346Y009640*
X016342Y009637*
X016338Y009634*
X016333Y009631*
X016332*
X016331Y009630*
X016330*
X016328Y009629*
X016325Y009627*
X016322Y009626*
X016319Y009625*
X016315Y009623*
X016310Y009622*
X016305Y009621*
X016300Y009620*
X016294Y009618*
X016288Y009617*
X016282*
X016275Y009616*
X016268*
X016265*
X016262*
X016257*
X016252Y009617*
X016246Y009618*
X016239Y009619*
X016232Y009620*
X016224Y009621*
X016216Y009623*
X016209Y009626*
X016201Y009628*
X016193Y009632*
X016187Y009636*
X016180Y009640*
X016175Y009645*
X016174Y009646*
X016173Y009647*
X016172Y009649*
X016170Y009651*
X016168Y009655*
X016166Y009659*
X016163Y009665*
X016161Y009671*
X016158Y009678*
X016156Y009686*
X016153Y009696*
X016151Y009706*
X016149Y009718*
X016148Y009730*
X016147Y009744*
Y009760*
Y010018*
X016087*
Y009759*
Y009758*
Y009756*
Y009755*
Y009753*
X016088Y009748*
Y009742*
Y009736*
X016089Y009728*
Y009721*
X016090Y009712*
X016091Y009703*
X016094Y009686*
X016096Y009677*
X016098Y009668*
X016100Y009660*
X016103Y009652*
X016104Y009650*
X016105Y009648*
X016106Y009645*
X016108Y009642*
X016110Y009638*
X016112Y009634*
X016116Y009629*
X016119Y009624*
X016123Y009619*
X016128Y009613*
X016133Y009608*
X016138Y009602*
X016144Y009597*
X016151Y009592*
X016158Y009587*
X016160Y009586*
X016162Y009585*
X016165Y009583*
X016169Y009581*
X016174Y009579*
X016180Y009577*
X016186Y009575*
X016193Y009573*
X016201Y009570*
X016210Y009568*
X016219Y009566*
X016229Y009565*
X016240Y009564*
X016251Y009563*
X016263*
X016269*
X016273*
X016279*
X016285Y009564*
X016292*
X016299Y009565*
X016307Y009566*
X016316Y009568*
X016324Y009570*
X016333Y009572*
X016342Y009574*
X016350Y009577*
X016358Y009580*
X016366Y009584*
Y009585*
X016368*
X016370Y009587*
X016373Y009588*
X016376Y009590*
X016380Y009593*
X016384Y009597*
X016388Y009600*
X016393Y009604*
X016398Y009609*
X016402Y009614*
X016407Y009620*
X016411Y009626*
X016416Y009633*
X016420Y009639*
X016423Y009647*
X016424Y009649*
X016425Y009651*
X016426Y009654*
X016427Y009658*
X016428Y009664*
X016430Y009669*
X016432Y009676*
X016433Y009684*
X016435Y009692*
X016436Y009702*
X016437Y009712*
X016438Y009722*
X016439Y009734*
X016440Y009746*
Y009759*
Y010018*
G37*
G36*
X013360D02*
X013296D01*
X013113Y009570*
X013180*
X013232Y009706*
X013420*
X013469Y009570*
X013532*
X013360Y010018*
G37*
G36*
X012899Y009184D02*
X012897D01*
X012890*
X012883Y009183*
X012877Y009181*
X012871Y009179*
X012865Y009176*
X012860Y009173*
X012855Y009169*
X012850Y009166*
X012847Y009163*
X012843Y009159*
X012840Y009156*
X012838Y009154*
X012836Y009151*
X012834Y009149*
X012833Y009148*
X012831Y009144*
X012828Y009140*
X012826Y009136*
X012825Y009131*
X012821Y009121*
X012818Y009110*
X012815Y009098*
X012813Y009085*
X012812Y009073*
X012810Y009061*
X012809Y009049*
X012808Y009038*
Y009028*
Y009023*
X012807Y009019*
Y009015*
Y009011*
Y009008*
Y009006*
Y009004*
Y009002*
Y009001*
Y008991*
Y008981*
X012808Y008972*
Y008963*
X012809Y008955*
Y008947*
X012810Y008939*
X012811Y008932*
X012812Y008924*
X012813Y008918*
X012814Y008912*
X012815Y008906*
X012816Y008901*
X012818Y008896*
X012819Y008891*
X012820Y008886*
X012822Y008878*
X012825Y008872*
X012827Y008866*
X012829Y008862*
X012831Y008858*
X012832Y008856*
X012833Y008855*
Y008854*
X012838Y008848*
X012843Y008842*
X012849Y008837*
X012854Y008833*
X012859Y008830*
X012864Y008827*
X012870Y008824*
X012874Y008822*
X012879Y008821*
X012883Y008820*
X012887Y008819*
X012890*
X012893Y008818*
X012895*
X012896*
X012903*
X012910Y008820*
X012917Y008821*
X012922Y008824*
X012928Y008826*
X012933Y008829*
X012938Y008833*
X012942Y008836*
X012947Y008839*
X012950Y008843*
X012953Y008846*
X012956Y008849*
X012958Y008851*
X012959Y008853*
X012960Y008854*
X012963Y008858*
X012965Y008862*
X012967Y008866*
X012969Y008871*
X012972Y008881*
X012975Y008892*
X012977Y008904*
X012980Y008917*
X012981Y008929*
X012983Y008941*
X012984Y008953*
X012985Y008964*
Y008974*
Y008979*
X012986Y008983*
Y008987*
Y008991*
Y008994*
Y008996*
Y008998*
Y009000*
Y009001*
Y009011*
Y009021*
X012985Y009030*
Y009039*
X012984Y009048*
X012983Y009056*
X012982Y009064*
X012981Y009071*
X012980Y009078*
X012979Y009085*
X012978Y009091*
X012977Y009097*
X012976Y009103*
X012975Y009108*
X012973Y009113*
X012972Y009118*
X012969Y009126*
X012966Y009133*
X012964Y009139*
X012962Y009144*
X012960Y009148*
X012959Y009150*
X012958Y009152*
X012953Y009158*
X012949Y009163*
X012944Y009167*
X012939Y009171*
X012934Y009174*
X012929Y009177*
X012924Y009179*
X012919Y009180*
X012914Y009182*
X012910Y009183*
X012907*
X012903Y009184*
X012901*
X012899*
G37*
G36*
X013900Y008943D02*
X013899D01*
Y008923*
Y008916*
X013900Y008910*
Y008904*
X013901Y008899*
Y008894*
X013902Y008889*
X013903Y008885*
X013904Y008882*
X013905Y008878*
Y008876*
X013906Y008873*
X013907Y008871*
Y008870*
X013908Y008869*
Y008868*
X013913Y008859*
X013919Y008852*
X013925Y008845*
X013931Y008840*
X013936Y008835*
X013938Y008833*
X013941Y008832*
X013942Y008831*
X013944Y008830*
X013945*
X013954Y008825*
X013964Y008822*
X013973Y008819*
X013982Y008818*
X013986Y008817*
X013990*
X013993Y008816*
X013996*
X013998*
X014001*
X014007*
X014013Y008817*
X014018*
X014022Y008818*
X014027Y008819*
X014031Y008820*
X014034Y008822*
X014038Y008823*
X014041Y008825*
X014043Y008826*
X014045Y008827*
X014047Y008828*
X014048Y008829*
X014049Y008830*
X014050Y008831*
X014053Y008833*
X014055Y008836*
X014058Y008839*
X014059Y008843*
X014063Y008849*
X014064Y008854*
X014065Y008859*
X014066Y008862*
Y008864*
Y008865*
Y008866*
Y008867*
Y008872*
X014065Y008877*
X014064Y008882*
X014063Y008886*
X014061Y008889*
X014060Y008891*
X014059Y008892*
Y008893*
X014056Y008897*
X014052Y008901*
X014049Y008904*
X014045Y008906*
X014042Y008908*
X014040Y008910*
X014038Y008911*
X014037*
X014034Y008912*
X014031Y008913*
X014024Y008915*
X014016Y008917*
X014008Y008919*
X014001Y008920*
X013998Y008921*
X013995*
X013993Y008922*
X013991*
X013990*
X013989*
X013978Y008924*
X013968Y008925*
X013959Y008927*
X013950Y008929*
X013942Y008931*
X013935Y008932*
X013928Y008934*
X013922Y008936*
X013916Y008937*
X013912Y008939*
X013908Y008940*
X013905Y008941*
X013902Y008942*
X013901*
X013900Y008943*
G37*
G36*
X011470Y009067D02*
X011466D01*
X011458Y009066*
X011451Y009065*
X011444Y009064*
X011437Y009062*
X011431Y009059*
X011426Y009057*
X011421Y009054*
X011416Y009051*
X011412Y009048*
X011408Y009045*
X011405Y009042*
X011403Y009040*
X011400Y009038*
X011399Y009036*
X011398Y009035*
X011395Y009031*
X011392Y009027*
X011387Y009017*
X011383Y009007*
X011381Y008997*
X011379Y008992*
Y008988*
X011378Y008984*
Y008981*
X011377Y008978*
Y008976*
Y008974*
X011558*
Y008982*
X011556Y008989*
X011555Y008996*
X011553Y009002*
X011551Y009008*
X011548Y009014*
X011546Y009019*
X011543Y009023*
X011541Y009027*
X011538Y009031*
X011536Y009034*
X011534Y009037*
X011532Y009039*
X011531Y009040*
X011530Y009041*
X011525Y009046*
X011520Y009050*
X011514Y009053*
X011509Y009056*
X011504Y009058*
X011498Y009061*
X011493Y009062*
X011488Y009064*
X011484*
X011479Y009065*
X011476Y009066*
X011472*
X011470Y009067*
G37*
G36*
X012544Y010018D02*
X012364D01*
X012360*
X012355*
X012350*
X012339Y010017*
X012327Y010016*
X012316Y010015*
X012311*
X012307Y010014*
X012306*
X012305*
X012303Y010013*
X012301*
X012298Y010012*
X012295Y010011*
X012292Y010010*
X012287Y010009*
X012279Y010006*
X012269Y010003*
X012260Y009998*
X012251Y009993*
Y009992*
X012250*
X012249Y009991*
X012248Y009990*
X012246Y009989*
X012244Y009987*
X012241Y009984*
X012238Y009982*
X012236Y009979*
X012233Y009976*
X012227Y009968*
X012221Y009959*
X012215Y009950*
Y009949*
Y009948*
X012214Y009947*
X012213Y009945*
X012212Y009942*
X012211Y009939*
X012210Y009935*
X012209Y009932*
X012207Y009927*
X012206Y009923*
X012205Y009918*
X012204Y009912*
X012202Y009901*
Y009888*
Y009886*
Y009883*
Y009879*
X012203Y009874*
X012204Y009868*
X012205Y009862*
X012206Y009855*
X012208Y009848*
X012211Y009840*
X012214Y009832*
X012217Y009824*
X012222Y009816*
X012226Y009807*
X012232Y009799*
X012238Y009792*
X012239*
X012240Y009790*
X012242Y009788*
X012246Y009786*
X012250Y009783*
X012255Y009779*
X012261Y009776*
X012269Y009772*
X012277Y009769*
X012286Y009765*
X012297Y009761*
X012309Y009759*
X012322Y009756*
X012329Y009755*
X012337Y009754*
X012345Y009753*
X012353*
X012361Y009752*
X012485*
Y009570*
X012544*
Y010018*
G37*
G36*
X015834Y010026D02*
X015829D01*
X015826*
X015821*
X015816Y010025*
X015811*
X015804Y010024*
X015798Y010023*
X015791Y010022*
X015776Y010019*
X015768Y010017*
X015761Y010015*
X015753Y010013*
X015746Y010010*
X015745Y010009*
X015743Y010008*
X015740Y010007*
X015737Y010005*
X015733Y010003*
X015729Y010001*
X015725Y009998*
X015720Y009995*
X015716Y009992*
X015711Y009988*
X015706Y009983*
X015701Y009979*
X015696Y009974*
X015692Y009969*
X015688Y009963*
Y009962*
X015687Y009961*
X015686Y009959*
X015685Y009957*
X015683Y009954*
X015681Y009951*
X015680Y009947*
X015677Y009942*
X015675Y009937*
X015673Y009932*
X015671Y009926*
X015670Y009920*
X015668Y009913*
X015667Y009907*
X015666Y009900*
Y009892*
X015723Y009888*
Y009889*
Y009890*
Y009892*
X015724Y009895*
X015725Y009899*
X015726Y009903*
X015727Y009907*
X015728Y009912*
X015730Y009917*
X015732Y009923*
X015735Y009928*
X015738Y009933*
X015741Y009938*
X015745Y009943*
X015749Y009948*
X015754Y009952*
Y009953*
X015755*
X015756Y009954*
X015759Y009956*
X015762Y009958*
X015765Y009959*
X015769Y009961*
X015773Y009963*
X015778Y009965*
X015784Y009967*
X015791Y009969*
X015798Y009971*
X015805Y009972*
X015813Y009973*
X015822Y009974*
X015832*
X015837*
X015840*
X015845Y009973*
X015850*
X015855Y009972*
X015861Y009971*
X015874Y009969*
X015881Y009968*
X015887Y009966*
X015893Y009963*
X015900Y009961*
X015905Y009958*
X015910Y009954*
X015911Y009953*
X015912Y009952*
X015914Y009951*
X015915Y009949*
X015918Y009946*
X015920Y009944*
X015922Y009941*
X015924Y009938*
X015926Y009934*
X015930Y009926*
X015932Y009922*
X015933Y009917*
X015934Y009912*
Y009907*
Y009906*
Y009904*
Y009903*
Y009900*
X015933Y009898*
X015932Y009893*
X015930Y009886*
X015927Y009880*
X015925Y009876*
X015923Y009873*
X015920Y009870*
X015917Y009867*
Y009866*
X015916*
X015915Y009865*
X015913Y009864*
X015911Y009863*
X015908Y009861*
X015904Y009859*
X015900Y009857*
X015894Y009854*
X015888Y009852*
X015880Y009849*
X015872Y009846*
X015863Y009843*
X015853Y009841*
X015841Y009838*
X015828Y009834*
X015827*
X015826*
X015825*
X015823Y009833*
X015821*
X015816Y009832*
X015810Y009830*
X015804Y009829*
X015796Y009827*
X015788Y009825*
X015772Y009820*
X015764Y009818*
X015756Y009816*
X015748Y009813*
X015741Y009811*
X015734Y009808*
X015729Y009806*
X015728*
X015727Y009805*
X015725Y009804*
X015722Y009803*
X015719Y009801*
X015716Y009799*
X015711Y009796*
X015707Y009794*
X015702Y009791*
X015697Y009787*
X015688Y009779*
X015679Y009770*
X015675Y009765*
X015671Y009760*
X015670*
Y009759*
X015669Y009757*
X015668Y009755*
X015667Y009753*
X015665Y009750*
X015663Y009746*
X015661Y009742*
X015660Y009738*
X015658Y009733*
X015656Y009727*
X015655Y009722*
X015654Y009716*
X015653Y009710*
X015652Y009703*
Y009697*
Y009696*
Y009695*
Y009693*
Y009691*
X015653Y009687*
Y009684*
X015654Y009680*
X015655Y009675*
X015656Y009670*
X015657Y009664*
X015659Y009659*
X015661Y009653*
X015663Y009647*
X015666Y009641*
X015669Y009635*
X015673Y009629*
X015674Y009628*
X015675Y009626*
X015677Y009624*
X015679Y009621*
X015681Y009618*
X015684Y009615*
X015688Y009611*
X015692Y009607*
X015696Y009603*
X015701Y009599*
X015706Y009595*
X015712Y009591*
X015718Y009587*
X015724Y009584*
X015731Y009580*
X015732*
X015733Y009579*
X015735Y009578*
X015738Y009577*
X015742Y009576*
X015746Y009575*
X015751Y009573*
X015756Y009571*
X015763Y009570*
X015769Y009568*
X015776Y009567*
X015784Y009565*
X015792Y009564*
X015800Y009563*
X015809*
X015818*
X015823*
X015828*
X015833*
X015839Y009564*
X015846*
X015853Y009565*
X015861Y009566*
X015869Y009567*
X015886Y009570*
X015895Y009572*
X015903Y009574*
X015912Y009577*
X015920Y009580*
X015922Y009581*
X015924Y009582*
X015926Y009583*
X015930Y009585*
X015934Y009588*
X015938Y009590*
X015943Y009593*
X015948Y009597*
X015953Y009601*
X015959Y009605*
X015964Y009610*
X015970Y009615*
X015975Y009621*
X015980Y009627*
X015984Y009633*
Y009634*
X015985Y009635*
X015986Y009637*
X015988Y009640*
X015990Y009643*
X015992Y009647*
X015994Y009652*
X015996Y009657*
X015998Y009663*
X016000Y009669*
X016002Y009676*
X016004Y009682*
X016006Y009690*
X016007Y009698*
X016008Y009706*
Y009714*
X015952Y009719*
Y009717*
Y009716*
X015951Y009714*
Y009711*
X015950Y009707*
X015949Y009703*
X015948Y009699*
X015946Y009691*
X015943Y009681*
X015939Y009672*
X015934Y009663*
Y009662*
X015933Y009661*
X015931Y009660*
X015930Y009658*
X015928Y009656*
X015926Y009654*
X015923Y009651*
X015920Y009648*
X015917Y009645*
X015913Y009643*
X015909Y009640*
X015905Y009637*
X015900Y009634*
X015895Y009631*
X015889Y009629*
X015888Y009628*
X015886Y009627*
X015884*
X015881Y009626*
X015878Y009624*
X015873Y009623*
X015869Y009622*
X015864Y009621*
X015859Y009620*
X015853Y009619*
X015847Y009617*
X015834Y009616*
X015820Y009615*
X015817*
X015814Y009616*
X015811*
X015808*
X015804*
X015800Y009617*
X015791Y009618*
X015781Y009620*
X015771Y009622*
X015761Y009625*
X015760*
X015759Y009626*
X015758*
X015756Y009627*
X015754Y009628*
X015752Y009630*
X015746Y009633*
X015740Y009636*
X015733Y009641*
X015727Y009647*
X015722Y009653*
X015721Y009654*
Y009655*
X015720Y009656*
X015719Y009658*
X015718Y009660*
X015716Y009665*
X015713Y009670*
X015711Y009677*
X015710Y009684*
X015709Y009692*
Y009693*
Y009695*
Y009697*
X015710Y009699*
X015711Y009704*
X015712Y009710*
X015714Y009716*
X015717Y009722*
X015722Y009728*
Y009729*
X015724Y009731*
X015727Y009734*
X015729Y009736*
X015731Y009738*
X015734Y009739*
X015737Y009742*
X015740Y009744*
X015744Y009746*
X015748Y009749*
X015752Y009751*
X015757Y009753*
X015762Y009755*
X015763*
X015764Y009756*
X015766*
X015768Y009757*
X015771Y009758*
X015775Y009759*
X015779Y009760*
X015784Y009762*
X015789Y009763*
X015796Y009765*
X015803Y009767*
X015811Y009769*
X015821Y009772*
X015831Y009774*
X015842Y009777*
X015843*
X015844*
X015848Y009778*
X015852Y009779*
X015857Y009781*
X015863Y009782*
X015869Y009784*
X015876Y009786*
X015890Y009790*
X015904Y009795*
X015911Y009797*
X015917Y009800*
X015923Y009802*
X015928Y009805*
X015929Y009806*
X015931Y009807*
X015933Y009808*
X015936Y009809*
X015939Y009812*
X015942Y009814*
X015946Y009817*
X015954Y009822*
X015962Y009830*
X015970Y009838*
X015973Y009842*
X015976Y009847*
X015977Y009848*
Y009849*
X015978Y009851*
X015980Y009854*
X015981Y009856*
X015982Y009859*
X015984Y009863*
X015985Y009867*
X015987Y009871*
X015989Y009881*
X015991Y009891*
Y009897*
X015992Y009902*
Y009903*
Y009904*
Y009906*
X015991Y009908*
Y009911*
Y009915*
X015990Y009919*
X015989Y009923*
X015988Y009928*
X015987Y009933*
X015985Y009938*
X015983Y009944*
X015981Y009949*
X015979Y009955*
X015976Y009960*
X015972Y009966*
X015971Y009967*
Y009969*
X015969Y009971*
X015967Y009973*
X015964Y009976*
X015961Y009979*
X015958Y009982*
X015955Y009986*
X015950Y009990*
X015946Y009993*
X015941Y009997*
X015935Y010001*
X015929Y010004*
X015923Y010008*
X015916Y010011*
X015915*
X015913Y010012*
X015910Y010013*
X015906Y010014*
X015902Y010015*
X015898Y010017*
X015892Y010018*
X015886Y010020*
X015880Y010021*
X015873Y010023*
X015866Y010024*
X015858Y010025*
X015851Y010026*
X015843*
X015834*
G37*
G36*
X016441Y009176D02*
X016337D01*
X016328Y009175*
X016320*
X016312Y009174*
X016306Y009173*
X016299*
X016294Y009172*
X016288Y009171*
X016284Y009170*
X016280Y009169*
X016277Y009168*
X016274*
X016273Y009167*
X016271*
X016270Y009166*
X016264Y009164*
X016258Y009160*
X016252Y009157*
X016247Y009153*
X016242Y009149*
X016238Y009144*
X016233Y009140*
X016229Y009136*
X016226Y009132*
X016223Y009128*
X016220Y009124*
X016218Y009122*
X016216Y009119*
X016215Y009117*
X016214Y009116*
Y009115*
X016210Y009108*
X016206Y009100*
X016203Y009091*
X016200Y009083*
X016198Y009074*
X016196Y009065*
X016195Y009056*
X016193Y009047*
Y009039*
X016192Y009032*
X016191Y009025*
Y009019*
Y009014*
Y009012*
Y009011*
Y009009*
Y009008*
Y009007*
Y008998*
Y008989*
X016192Y008981*
X016193Y008972*
Y008965*
X016194Y008958*
X016195Y008951*
X016196Y008945*
X016198Y008940*
X016199Y008935*
X016200Y008931*
X016201Y008927*
X016202Y008924*
Y008923*
X016203Y008921*
X016205Y008914*
X016207Y008908*
X016210Y008902*
X016213Y008897*
X016215Y008892*
X016218Y008887*
X016221Y008883*
X016223Y008879*
X016226Y008876*
X016228Y008873*
X016230Y008870*
X016232Y008868*
X016233Y008867*
X016234Y008865*
X016235*
Y008864*
X016241Y008859*
X016248Y008854*
X016255Y008850*
X016261Y008847*
X016267Y008844*
X016269Y008843*
X016272*
X016273Y008842*
X016275Y008841*
X016276*
X016281Y008840*
X016286Y008838*
X016297Y008836*
X016309Y008835*
X016320Y008834*
X016325Y008833*
X016330*
X016334*
X016338*
X016441*
Y009176*
G37*
%LNuda-3*%
%LPD*%
G36*
X014374Y009971D02*
Y009969D01*
X014375Y009967*
Y009964*
X014376Y009960*
X014377Y009956*
X014378Y009950*
X014380Y009945*
X014382Y009938*
X014383Y009931*
X014385Y009924*
X014387Y009917*
X014392Y009901*
X014398Y009886*
X014447Y009754*
X014295*
X014342Y009878*
Y009879*
X014343Y009881*
X014344Y009884*
X014345Y009888*
X014347Y009892*
X014349Y009898*
X014351Y009904*
X014354Y009911*
X014356Y009918*
X014359Y009926*
X014364Y009941*
X014369Y009957*
X014372Y009964*
X014374Y009971*
G37*
G36*
X012485Y009805D02*
X012363D01*
X012360Y009806*
X012355*
X012349Y009807*
X012344*
X012337Y009808*
X012324Y009810*
X012317Y009812*
X012310Y009814*
X012304Y009817*
X012298Y009819*
X012292Y009823*
X012287Y009827*
X012286Y009828*
X012285Y009829*
X012283Y009830*
X012282Y009833*
X012280Y009835*
X012277Y009839*
X012275Y009842*
X012273Y009846*
X012271Y009851*
X012269Y009856*
X012267Y009861*
X012265Y009867*
X012264Y009873*
X012263Y009880*
Y009887*
Y009888*
Y009889*
Y009892*
Y009894*
X012264Y009897*
Y009900*
X012265Y009903*
X012267Y009911*
X012269Y009919*
X012272Y009927*
X012275Y009931*
X012277Y009935*
X012278Y009936*
X012279Y009937*
X012280Y009938*
X012283Y009942*
X012287Y009946*
X012293Y009950*
X012299Y009955*
X012306Y009958*
X012315Y009961*
Y009962*
X012316*
X012318*
X012319*
X012322Y009963*
X012324*
X012327Y009964*
X012331*
X012335*
X012339Y009965*
X012345*
X012350*
X012356*
X012363Y009966*
X012485*
Y009805*
G37*
G36*
X015514Y009830D02*
X015411D01*
X015408*
X015400*
X015395*
X015386Y009831*
X015377Y009832*
X015372Y009833*
X015368*
X015364Y009834*
X015361Y009835*
X015360*
X015358Y009836*
X015357*
X015355Y009837*
X015353Y009838*
X015348Y009840*
X015343Y009843*
X015337Y009847*
X015332Y009852*
X015327Y009857*
X015326Y009858*
Y009859*
X015325Y009860*
X015324Y009862*
X015323Y009863*
X015321Y009868*
X015319Y009874*
X015317Y009880*
X015316Y009888*
X015315Y009897*
Y009898*
Y009899*
Y009900*
Y009902*
X015316Y009905*
Y009910*
X015318Y009916*
X015320Y009923*
X015323Y009929*
X015326Y009936*
X015327*
X015328Y009939*
X015331Y009942*
X015334Y009945*
X015338Y009949*
X015344Y009953*
X015349Y009956*
X015357Y009959*
X015358*
X015359Y009960*
X015360*
X015363Y009961*
X015365*
X015369Y009962*
X015372*
X015377Y009963*
X015382Y009964*
X015387*
X015393Y009965*
X015400*
X015408*
X015416Y009966*
X015514*
Y009830*
G37*
G36*
X014920Y009623D02*
X014817D01*
X014814*
X014809*
X014804*
X014799Y009624*
X014788Y009625*
X014777Y009626*
X014765Y009628*
X014760Y009630*
X014755Y009631*
X014754*
X014753Y009632*
X014751Y009633*
X014749*
X014746Y009634*
X014741Y009637*
X014734Y009640*
X014727Y009644*
X014721Y009649*
X014715Y009654*
X014714Y009655*
X014713Y009657*
X014711Y009658*
X014710Y009660*
X014708Y009663*
X014705Y009666*
X014703Y009669*
X014700Y009673*
X014698Y009677*
X014695Y009682*
X014692Y009687*
X014689Y009692*
X014687Y009698*
X014684Y009704*
X014682Y009711*
X014681Y009713*
Y009714*
X014680Y009717*
X014679Y009721*
X014678Y009725*
X014677Y009730*
X014676Y009735*
X014675Y009741*
X014674Y009748*
X014673Y009755*
X014672Y009762*
X014671Y009771*
Y009779*
X014670Y009788*
Y009797*
Y009798*
Y009799*
Y009801*
Y009802*
Y009804*
Y009809*
X014671Y009815*
Y009822*
X014672Y009829*
X014673Y009837*
X014674Y009846*
X014676Y009855*
X014677Y009864*
X014680Y009873*
X014683Y009881*
X014686Y009890*
X014689Y009898*
X014693Y009905*
X014694Y009906*
Y009907*
X014696Y009909*
X014698Y009912*
X014700Y009914*
X014702Y009918*
X014705Y009922*
X014709Y009926*
X014713Y009930*
X014717Y009934*
X014722Y009939*
X014727Y009943*
X014732Y009947*
X014737Y009950*
X014743Y009954*
X014749Y009956*
X014750*
Y009957*
X014752*
X014754Y009958*
X014756*
X014760Y009959*
X014764Y009960*
X014768Y009961*
X014773Y009962*
X014779Y009963*
X014785*
X014792Y009964*
X014800Y009965*
X014808*
X014816Y009966*
X014920*
Y009623*
G37*
G36*
X015514D02*
X015393D01*
X015387*
X015380*
X015373Y009624*
X015367*
X015364*
X015362Y009625*
X015361*
X015360*
X015358*
X015355Y009626*
X015350Y009628*
X015345Y009629*
X015339Y009631*
X015334Y009634*
X015328Y009637*
X015327*
X015326Y009638*
X015323Y009640*
X015320Y009643*
X015316Y009647*
X015312Y009651*
X015309Y009656*
X015305Y009662*
X015304Y009663*
Y009665*
X015302Y009668*
X015301Y009673*
X015299Y009678*
X015298Y009685*
X015297Y009692*
X015296Y009700*
Y009701*
Y009703*
X015297Y009704*
Y009706*
Y009709*
X015298Y009715*
X015300Y009722*
X015302Y009729*
X015305Y009736*
X015309Y009743*
Y009744*
X015310*
X015311Y009745*
X015312Y009746*
X015314Y009750*
X015319Y009753*
X015324Y009758*
X015330Y009762*
X015337Y009766*
X015345Y009769*
X015346*
Y009770*
X015347*
X015349Y009771*
X015352*
X015355Y009772*
X015358*
X015362Y009773*
X015366Y009774*
X015371*
X015377Y009775*
X015382Y009776*
X015389*
X015395Y009777*
X015403*
X015514*
Y009623*
G37*
G36*
X013330Y009971D02*
Y009969D01*
X013331Y009967*
Y009964*
X013332Y009960*
X013333Y009956*
X013334Y009950*
X013336Y009945*
X013338Y009938*
X013339Y009931*
X013341Y009924*
X013344Y009917*
X013348Y009901*
X013354Y009886*
X013403Y009754*
X013251*
X013298Y009878*
Y009879*
X013299Y009881*
X013300Y009884*
X013301Y009888*
X013303Y009892*
X013305Y009898*
X013307Y009904*
X013310Y009911*
X013312Y009918*
X013315Y009926*
X013320Y009941*
X013325Y009957*
X013328Y009964*
X013330Y009971*
G37*
M02*