%FSDAX24Y24*%
%MOIN*%
%SFA1B1*%

%IPPOS*%
%AMD43*
4,1,8,-0.005400,-0.038400,0.005400,-0.038400,0.014800,-0.029000,0.014800,0.029000,0.005400,0.038400,-0.005400,0.038400,-0.014800,0.029000,-0.014800,-0.029000,-0.005400,-0.038400,0.0*
1,1,0.018800,-0.005400,-0.029000*
1,1,0.018800,0.005400,-0.029000*
1,1,0.018800,0.005400,0.029000*
1,1,0.018800,-0.005400,0.029000*
%
%AMD44*
4,1,8,0.038400,-0.005400,0.038400,0.005400,0.029000,0.014800,-0.029000,0.014800,-0.038400,0.005400,-0.038400,-0.005400,-0.029000,-0.014800,0.029000,-0.014800,0.038400,-0.005400,0.0*
1,1,0.018800,0.029000,-0.005400*
1,1,0.018800,0.029000,0.005400*
1,1,0.018800,-0.029000,0.005400*
1,1,0.018800,-0.029000,-0.005400*
%
%ADD34R,0.043400X0.039500*%
%ADD35R,0.071900X0.090800*%
%ADD36R,0.071200X0.023700*%
%ADD37R,0.078900X0.082800*%
%ADD38R,0.118000X0.118000*%
%ADD39R,0.095000X0.118000*%
%ADD40R,0.126100X0.071000*%
%ADD41R,0.118200X0.071000*%
%ADD42R,0.039500X0.043400*%
G04~CAMADD=43~8~0.0~0.0~297.0~769.0~94.0~0.0~15~0.0~0.0~0.0~0.0~0~0.0~0.0~0.0~0.0~0~0.0~0.0~0.0~180.0~296.0~768.0*
%ADD43D43*%
G04~CAMADD=44~8~0.0~0.0~297.0~769.0~94.0~0.0~15~0.0~0.0~0.0~0.0~0~0.0~0.0~0.0~0.0~0~0.0~0.0~0.0~270.0~768.0~296.0*
%ADD44D44*%
%ADD45R,0.063100X0.055200*%
%ADD46R,0.035600X0.043400*%
%ADD47R,0.039500X0.039500*%
%ADD48C,0.174900*%
%ADD49R,0.008000X0.008000*%
%ADD50C,0.067100*%
%ADD51R,0.067100X0.067100*%
%ADD52C,0.010000*%
%LNuda-1*%
%LPD*%
G54D34*
X008920Y005896D03*
Y005344D03*
X011840Y000964D03*
Y001516D03*
X012850Y001486D03*
Y000934D03*
X000950Y007934D03*
Y008486D03*
X005190Y009046D03*
Y008494D03*
X007590D03*
Y009046D03*
X002250Y007954D03*
Y008506D03*
G54D35*
X001600Y004100D03*
Y006540D03*
G54D36*
X001800Y004808D03*
Y005064D03*
Y005320D03*
Y005576D03*
Y005832D03*
G54D37*
X000618Y003845D03*
Y006795D03*
Y005773D03*
Y004867D03*
G54D38*
X014950Y008530D03*
X013280Y006800D03*
G54D39*
X018610Y008530D03*
X017870Y005690D03*
G54D40*
X014670Y001370D03*
Y003690D03*
X011330Y004630D03*
G54D41*
X016599Y001370D03*
Y003690D03*
X013259Y004630D03*
G54D42*
X009396Y002740D03*
X008844D03*
X010596D03*
X010044D03*
X009416Y003530D03*
X008864D03*
X010596Y003440D03*
X010044D03*
X005294Y003420D03*
X005846D03*
X011394Y002690D03*
X011946D03*
X006984Y003410D03*
X007536D03*
X004776Y001350D03*
X004224D03*
X003606Y005750D03*
X003054D03*
X003606Y004880D03*
X003054D03*
X003454Y003430D03*
X004006D03*
X005724Y000650D03*
X006276D03*
G54D43*
X007472Y004346D03*
X007157D03*
X006842D03*
X006527D03*
X006213D03*
X005898D03*
X005583D03*
X005268D03*
Y007594D03*
X005583D03*
X005898D03*
X006213D03*
X006527D03*
X006842D03*
X007157D03*
X007472D03*
G54D44*
X004746Y004868D03*
Y005183D03*
Y005498D03*
Y005813D03*
Y006127D03*
Y006442D03*
Y006757D03*
Y007072D03*
X007994D03*
Y006757D03*
Y006442D03*
Y006127D03*
Y005813D03*
Y005498D03*
Y005183D03*
Y004868D03*
G54D45*
X005924Y008451D03*
X006790D03*
X005924Y009120D03*
X006790D03*
G54D46*
X009715Y007410D03*
X009125D03*
X012635Y002690D03*
X013225D03*
G54D47*
X004840Y000660D03*
X004190D03*
G54D48*
X001540Y010360D03*
X018110Y001575D03*
X018260Y010320D03*
X001510Y001600D03*
G54D49*
X018190Y007110D03*
X015430D03*
G54D50*
X016730Y011170D03*
X015730D03*
X014730D03*
X013730D03*
X010690Y000710D03*
X009690D03*
X010550Y011130D03*
X009550D03*
X008550D03*
X007550D03*
X006550D03*
X005550D03*
X004550D03*
G54D51*
X012730Y011170D03*
X008690Y000710D03*
X003550Y011130D03*
G54D52*
X002420Y006370D03*
M02*