%FSDAX24Y24*%
%MOIN*%
%SFA1B1*%

%IPPOS*%
%ADD55C,0.005000*%
%ADD56C,0.006700*%
%LNuda-1*%
%LPD*%
G54D55*
X001340Y010160D02*
Y010560D01*
X001740*
Y010160*
X001340*
X017910Y001375D02*
Y001775D01*
X018310*
Y001375*
X017910*
X018060Y010120D02*
Y010520D01*
X018460*
Y010120*
X018060*
X001310Y001400D02*
Y001800D01*
X001710*
Y001400*
X001310*
X016730Y010970D02*
X016530Y011370D01*
X016930*
X016730Y010970*
X015730D02*
X015530Y011370D01*
X015930*
X015730Y010970*
X014730D02*
X014530Y011370D01*
X014930*
X014730Y010970*
X013730D02*
X013530Y011370D01*
X013930*
X013730Y010970*
X012730D02*
X012530Y011370D01*
X012930*
X012730Y010970*
X010690Y000510D02*
X010490Y000910D01*
X010890*
X010690Y000510*
X009690D02*
X009490Y000910D01*
X009890*
X009690Y000510*
X008690D02*
X008490Y000910D01*
X008890*
X008690Y000510*
X010550Y010930D02*
X010350Y011330D01*
X010750*
X010550Y010930*
X009550D02*
X009350Y011330D01*
X009750*
X009550Y010930*
X008550D02*
X008350Y011330D01*
X008750*
X008550Y010930*
X007550D02*
X007350Y011330D01*
X007750*
X007550Y010930*
X006550D02*
X006350Y011330D01*
X006750*
X006550Y010930*
X005550D02*
X005350Y011330D01*
X005750*
X005550Y010930*
X004550D02*
X004350Y011330D01*
X004750*
X004550Y010930*
X003550D02*
X003350Y011330D01*
X003750*
X003550Y010930*
X008220Y008901D02*
X008320Y009001D01*
X008420*
X008320Y009101*
X008420Y009201*
X008320*
X008220Y009301*
X008120Y009201*
X008020*
X008120Y009101*
X008020Y009001*
X008120*
X008220Y008901*
X008550Y008990D02*
X008650Y009090D01*
X008750*
X008650Y009190*
X008750Y009290*
X008650*
X008550Y009390*
X008450Y009290*
X008350*
X008450Y009190*
X008350Y009090*
X008450*
X008550Y008990*
X005390Y006240D02*
X005490Y006340D01*
X005590*
X005490Y006440*
X005590Y006540*
X005490*
X005390Y006640*
X005290Y006540*
X005190*
X005290Y006440*
X005190Y006340*
X005290*
X005390Y006240*
X004910Y002640D02*
X005010Y002740D01*
X005110*
X005010Y002840*
X005110Y002940*
X005010*
X004910Y003040*
X004810Y002940*
X004710*
X004810Y002840*
X004710Y002740*
X004810*
X004910Y002640*
X005430Y005290D02*
X005530Y005390D01*
X005630*
X005530Y005490*
X005630Y005590*
X005530*
X005430Y005690*
X005330Y005590*
X005230*
X005330Y005490*
X005230Y005390*
X005330*
X005430Y005290*
X005770Y005020D02*
X005870Y005120D01*
X005970*
X005870Y005220*
X005970Y005320*
X005870*
X005770Y005420*
X005670Y005320*
X005570*
X005670Y005220*
X005570Y005120*
X005670*
X005770Y005020*
X008300Y007890D02*
X008400Y007990D01*
X008500*
X008400Y008090*
X008500Y008190*
X008400*
X008300Y008290*
X008200Y008190*
X008100*
X008200Y008090*
X008100Y007990*
X008200*
X008300Y007890*
X006800Y010060D02*
X006900Y010160D01*
X007000*
X006900Y010260*
X007000Y010360*
X006900*
X006800Y010460*
X006700Y010360*
X006600*
X006700Y010260*
X006600Y010160*
X006700*
X006800Y010060*
X006540Y005470D02*
X006640Y005570D01*
X006740*
X006640Y005670*
X006740Y005770*
X006640*
X006540Y005870*
X006440Y005770*
X006340*
X006440Y005670*
X006340Y005570*
X006440*
X006540Y005470*
X006080Y009780D02*
X006180Y009880D01*
X006280*
X006180Y009980*
X006280Y010080*
X006180*
X006080Y010180*
X005980Y010080*
X005880*
X005980Y009980*
X005880Y009880*
X005980*
X006080Y009780*
X008860Y003910D02*
X008960Y004010D01*
X009060*
X008960Y004110*
X009060Y004210*
X008960*
X008860Y004310*
X008760Y004210*
X008660*
X008760Y004110*
X008660Y004010*
X008760*
X008860Y003910*
X010860Y005720D02*
X010960Y005820D01*
X011060*
X010960Y005920*
X011060Y006020*
X010960*
X010860Y006120*
X010760Y006020*
X010660*
X010760Y005920*
X010660Y005820*
X010760*
X010860Y005720*
X010060Y007700D02*
X010160Y007800D01*
X010260*
X010160Y007900*
X010260Y008000*
X010160*
X010060Y008100*
X009960Y008000*
X009860*
X009960Y007900*
X009860Y007800*
X009960*
X010060Y007700*
X004840Y009760D02*
X004940Y009860D01*
X005040*
X004940Y009960*
X005040Y010060*
X004940*
X004840Y010160*
X004740Y010060*
X004640*
X004740Y009960*
X004640Y009860*
X004740*
X004840Y009760*
X004470Y008220D02*
X004570Y008320D01*
X004670*
X004570Y008420*
X004670Y008520*
X004570*
X004470Y008620*
X004370Y008520*
X004270*
X004370Y008420*
X004270Y008320*
X004370*
X004470Y008220*
X001870Y003160D02*
X001970Y003260D01*
X002070*
X001970Y003360*
X002070Y003460*
X001970*
X001870Y003560*
X001770Y003460*
X001670*
X001770Y003360*
X001670Y003260*
X001770*
X001870Y003160*
X008350Y002560D02*
X008450Y002660D01*
X008550*
X008450Y002760*
X008550Y002860*
X008450*
X008350Y002960*
X008250Y002860*
X008150*
X008250Y002760*
X008150Y002660*
X008250*
X008350Y002560*
X011080Y002880D02*
X011180Y002980D01*
X011280*
X011180Y003080*
X011280Y003180*
X011180*
X011080Y003280*
X010980Y003180*
X010880*
X010980Y003080*
X010880Y002980*
X010980*
X011080Y002880*
X013740Y001300D02*
X013840Y001400D01*
X013940*
X013840Y001500*
X013940Y001600*
X013840*
X013740Y001700*
X013640Y001600*
X013540*
X013640Y001500*
X013540Y001400*
X013640*
X013740Y001300*
X011310Y001720D02*
X011410Y001820D01*
X011510*
X011410Y001920*
X011510Y002020*
X011410*
X011310Y002120*
X011210Y002020*
X011110*
X011210Y001920*
X011110Y001820*
X011210*
X011310Y001720*
X002484Y011144D02*
X002584Y011244D01*
X002684*
X002584Y011344*
X002684Y011444*
X002584*
X002484Y011544*
X002384Y011444*
X002284*
X002384Y011344*
X002284Y011244*
X002384*
X002484Y011144*
X012380Y009620D02*
X012480Y009720D01*
X012580*
X012480Y009820*
X012580Y009920*
X012480*
X012380Y010020*
X012280Y009920*
X012180*
X012280Y009820*
X012180Y009720*
X012280*
X012380Y009620*
X006370Y006400D02*
X006470Y006500D01*
X006570*
X006470Y006600*
X006570Y006700*
X006470*
X006370Y006800*
X006270Y006700*
X006170*
X006270Y006600*
X006170Y006500*
X006270*
X006370Y006400*
X006210Y006760D02*
X006310Y006860D01*
X006410*
X006310Y006960*
X006410Y007060*
X006310*
X006210Y007160*
X006110Y007060*
X006010*
X006110Y006960*
X006010Y006860*
X006110*
X006210Y006760*
X002550Y007110D02*
X002650Y007210D01*
X002750*
X002650Y007310*
X002750Y007410*
X002650*
X002550Y007510*
X002450Y007410*
X002350*
X002450Y007310*
X002350Y007210*
X002450*
X002550Y007110*
X002930Y008660D02*
X003030Y008760D01*
X003130*
X003030Y008860*
X003130Y008960*
X003030*
X002930Y009060*
X002830Y008960*
X002730*
X002830Y008860*
X002730Y008760*
X002830*
X002930Y008660*
X003830Y007300D02*
X003930Y007400D01*
X004030*
X003930Y007500*
X004030Y007600*
X003930*
X003830Y007700*
X003730Y007600*
X003630*
X003730Y007500*
X003630Y007400*
X003730*
X003830Y007300*
X004140Y006780D02*
X004240Y006880D01*
X004340*
X004240Y006980*
X004340Y007080*
X004240*
X004140Y007180*
X004040Y007080*
X003940*
X004040Y006980*
X003940Y006880*
X004040*
X004140Y006780*
X004780Y001920D02*
X004880Y002020D01*
X004980*
X004880Y002120*
X004980Y002220*
X004880*
X004780Y002320*
X004680Y002220*
X004580*
X004680Y002120*
X004580Y002020*
X004680*
X004780Y001920*
X003400Y008570D02*
X003500Y008670D01*
X003600*
X003500Y008770*
X003600Y008870*
X003500*
X003400Y008970*
X003300Y008870*
X003200*
X003300Y008770*
X003200Y008670*
X003300*
X003400Y008570*
X003054Y006964D02*
X003154Y007064D01*
X003254*
X003154Y007164*
X003254Y007264*
X003154*
X003054Y007364*
X002954Y007264*
X002854*
X002954Y007164*
X002854Y007064*
X002954*
X003054Y006964*
X003860Y001900D02*
X003960Y002000D01*
X004060*
X003960Y002100*
X004060Y002200*
X003960*
X003860Y002300*
X003760Y002200*
X003660*
X003760Y002100*
X003660Y002000*
X003760*
X003860Y001900*
X002680Y001930D02*
X002780Y002030D01*
X002880*
X002780Y002130*
X002880Y002230*
X002780*
X002680Y002330*
X002580Y002230*
X002480*
X002580Y002130*
X002480Y002030*
X002580*
X002680Y001930*
X007940Y002360D02*
X008040Y002460D01*
X008140*
X008040Y002560*
X008140Y002660*
X008040*
X007940Y002760*
X007840Y002660*
X007740*
X007840Y002560*
X007740Y002460*
X007840*
X007940Y002360*
X009790Y001760D02*
X009890Y001860D01*
X009990*
X009890Y001960*
X009990Y002060*
X009890*
X009790Y002160*
X009690Y002060*
X009590*
X009690Y001960*
X009590Y001860*
X009690*
X009790Y001760*
X002220Y006170D02*
X002320Y006370D01*
X002220Y006570*
X002420Y006470*
X002620Y006570*
X002520Y006370*
X002620Y006170*
X002420Y006270*
X002220Y006170*
X002840Y004050D02*
X002940Y004150D01*
X003040*
X002940Y004250*
X003040Y004350*
X002940*
X002840Y004450*
X002740Y004350*
X002640*
X002740Y004250*
X002640Y004150*
X002740*
X002840Y004050*
G54D56*
X018390Y007110D02*
D01*
X018389Y007123*
X018388Y007137*
X018385Y007151*
X018382Y007165*
X018377Y007178*
X018372Y007191*
X018366Y007203*
X018359Y007215*
X018351Y007227*
X018343Y007238*
X018333Y007248*
X018323Y007258*
X018313Y007267*
X018301Y007275*
X018290Y007283*
X018277Y007289*
X018264Y007295*
X018251Y007300*
X018238Y007304*
X018224Y007306*
X018210Y007308*
X018196Y007309*
X018183*
X018169Y007308*
X018155Y007306*
X018141Y007304*
X018128Y007300*
X018115Y007295*
X018102Y007289*
X018090Y007283*
X018078Y007275*
X018066Y007267*
X018056Y007258*
X018046Y007248*
X018036Y007238*
X018028Y007227*
X018020Y007215*
X018013Y007203*
X018007Y007191*
X018002Y007178*
X017997Y007165*
X017994Y007151*
X017991Y007137*
X017990Y007123*
X017990Y007110*
X017990Y007096*
X017991Y007082*
X017994Y007068*
X017997Y007054*
X018002Y007041*
X018007Y007028*
X018013Y007016*
X018020Y007004*
X018028Y006992*
X018036Y006981*
X018046Y006971*
X018056Y006961*
X018066Y006952*
X018078Y006944*
X018090Y006936*
X018102Y006930*
X018115Y006924*
X018128Y006919*
X018141Y006915*
X018155Y006913*
X018169Y006911*
X018183Y006910*
X018196*
X018210Y006911*
X018224Y006913*
X018238Y006915*
X018251Y006919*
X018264Y006924*
X018277Y006930*
X018290Y006936*
X018301Y006944*
X018313Y006952*
X018323Y006961*
X018333Y006971*
X018343Y006981*
X018351Y006992*
X018359Y007004*
X018366Y007016*
X018372Y007028*
X018377Y007041*
X018382Y007054*
X018385Y007068*
X018388Y007082*
X018389Y007096*
X018390Y007110*
X015630D02*
D01*
X015629Y007123*
X015628Y007137*
X015625Y007151*
X015622Y007165*
X015617Y007178*
X015612Y007191*
X015606Y007203*
X015599Y007215*
X015591Y007227*
X015583Y007238*
X015573Y007248*
X015563Y007258*
X015553Y007267*
X015541Y007275*
X015530Y007283*
X015517Y007289*
X015504Y007295*
X015491Y007300*
X015478Y007304*
X015464Y007306*
X015450Y007308*
X015436Y007309*
X015423*
X015409Y007308*
X015395Y007306*
X015381Y007304*
X015368Y007300*
X015355Y007295*
X015342Y007289*
X015330Y007283*
X015318Y007275*
X015306Y007267*
X015296Y007258*
X015286Y007248*
X015276Y007238*
X015268Y007227*
X015260Y007215*
X015253Y007203*
X015247Y007191*
X015242Y007178*
X015237Y007165*
X015234Y007151*
X015231Y007137*
X015230Y007123*
X015230Y007110*
X015230Y007096*
X015231Y007082*
X015234Y007068*
X015237Y007054*
X015242Y007041*
X015247Y007028*
X015253Y007016*
X015260Y007004*
X015268Y006992*
X015276Y006981*
X015286Y006971*
X015296Y006961*
X015306Y006952*
X015318Y006944*
X015330Y006936*
X015342Y006930*
X015355Y006924*
X015368Y006919*
X015381Y006915*
X015395Y006913*
X015409Y006911*
X015423Y006910*
X015436*
X015450Y006911*
X015464Y006913*
X015478Y006915*
X015491Y006919*
X015504Y006924*
X015517Y006930*
X015530Y006936*
X015541Y006944*
X015553Y006952*
X015563Y006961*
X015573Y006971*
X015583Y006981*
X015591Y006992*
X015599Y007004*
X015606Y007016*
X015612Y007028*
X015617Y007041*
X015622Y007054*
X015625Y007068*
X015628Y007082*
X015629Y007096*
X015630Y007110*
M02*