%FSDAX24Y24*%
%MOIN*%
%SFA1B1*%

%IPPOS*%
%AMD19*
4,1,8,-0.005400,-0.034400,0.005400,-0.034400,0.010800,-0.029000,0.010800,0.029000,0.005400,0.034400,-0.005400,0.034400,-0.010800,0.029000,-0.010800,-0.029000,-0.005400,-0.034400,0.0*
1,1,0.010800,-0.005400,-0.029000*
1,1,0.010800,0.005400,-0.029000*
1,1,0.010800,0.005400,0.029000*
1,1,0.010800,-0.005400,0.029000*
%
%AMD20*
4,1,8,0.034400,-0.005400,0.034400,0.005400,0.029000,0.010800,-0.029000,0.010800,-0.034400,0.005400,-0.034400,-0.005400,-0.029000,-0.010800,0.029000,-0.010800,0.034400,-0.005400,0.0*
1,1,0.010800,0.029000,-0.005400*
1,1,0.010800,0.029000,0.005400*
1,1,0.010800,-0.029000,0.005400*
1,1,0.010800,-0.029000,-0.005400*
%
%ADD10R,0.035400X0.031500*%
%ADD11R,0.063900X0.082800*%
%ADD12R,0.063200X0.015700*%
%ADD13R,0.070900X0.074800*%
%ADD14R,0.110000X0.110000*%
%ADD15R,0.087000X0.110000*%
%ADD16R,0.118100X0.063000*%
%ADD17R,0.110200X0.063000*%
%ADD18R,0.031500X0.035400*%
G04~CAMADD=19~8~0.0~0.0~217.0~689.0~54.0~0.0~15~0.0~0.0~0.0~0.0~0~0.0~0.0~0.0~0.0~0~0.0~0.0~0.0~180.0~216.0~688.0*
%ADD19D19*%
G04~CAMADD=20~8~0.0~0.0~217.0~689.0~54.0~0.0~15~0.0~0.0~0.0~0.0~0~0.0~0.0~0.0~0.0~0~0.0~0.0~0.0~270.0~688.0~216.0*
%ADD20D20*%
%ADD21R,0.055100X0.047200*%
%ADD22R,0.027600X0.035400*%
%ADD23R,0.031500X0.031500*%
%LNuda-1*%
%LPD*%
G54D10*
X008920Y005896D03*
Y005344D03*
X011840Y000964D03*
Y001516D03*
X012850Y001486D03*
Y000934D03*
X000950Y007934D03*
Y008486D03*
X005190Y009046D03*
Y008494D03*
X007590D03*
Y009046D03*
X002250Y007954D03*
Y008506D03*
G54D11*
X001600Y004100D03*
Y006540D03*
G54D12*
X001800Y004808D03*
Y005064D03*
Y005320D03*
Y005576D03*
Y005832D03*
G54D13*
X000618Y003845D03*
Y006795D03*
Y005773D03*
Y004867D03*
G54D14*
X014950Y008530D03*
X013280Y006800D03*
G54D15*
X018610Y008530D03*
X017870Y005690D03*
G54D16*
X014670Y001370D03*
Y003690D03*
X011330Y004630D03*
G54D17*
X016599Y001370D03*
Y003690D03*
X013259Y004630D03*
G54D18*
X009396Y002740D03*
X008844D03*
X010596D03*
X010044D03*
X009416Y003530D03*
X008864D03*
X010596Y003440D03*
X010044D03*
X005294Y003420D03*
X005846D03*
X011394Y002690D03*
X011946D03*
X006984Y003410D03*
X007536D03*
X004776Y001350D03*
X004224D03*
X003606Y005750D03*
X003054D03*
X003606Y004880D03*
X003054D03*
X003454Y003430D03*
X004006D03*
X005724Y000650D03*
X006276D03*
G54D19*
X007472Y004346D03*
X007157D03*
X006842D03*
X006527D03*
X006213D03*
X005898D03*
X005583D03*
X005268D03*
Y007594D03*
X005583D03*
X005898D03*
X006213D03*
X006527D03*
X006842D03*
X007157D03*
X007472D03*
G54D20*
X004746Y004868D03*
Y005183D03*
Y005498D03*
Y005813D03*
Y006127D03*
Y006442D03*
Y006757D03*
Y007072D03*
X007994D03*
Y006757D03*
Y006442D03*
Y006127D03*
Y005813D03*
Y005498D03*
Y005183D03*
Y004868D03*
G54D21*
X005924Y008451D03*
X006790D03*
X005924Y009120D03*
X006790D03*
G54D22*
X009715Y007410D03*
X009125D03*
X012635Y002690D03*
X013225D03*
G54D23*
X004840Y000660D03*
X004190D03*
M02*